<?xml version="1.0" encoding="UTF-8"?>
<svg id="Layer_1" data-name="Layer 1" xmlns="http://www.w3.org/2000/svg" viewBox="0 0 685.25 675.24">
  <defs>
    <style>
      .cls-1 {
        fill: #fff;
      }

      .cls-2 {
        fill: #010056;
      }

      .cls-3 {
        stroke: #010056;
        stroke-width: 2px;
      }

      .cls-3, .cls-4, .cls-5, .cls-6 {
        fill: none;
      }

      .cls-4 {
        stroke: #072643;
      }

      .cls-4, .cls-5, .cls-6 {
        stroke-width: .25px;
      }

      .cls-7 {
        fill: #072643;
      }

      .cls-5 {
        stroke: #e8b23f;
      }

      .cls-8 {
        fill: #e58e00;
      }

      .cls-6 {
        stroke: #fff;
      }

      .cls-9 {
        fill: #e8b23f;
      }
    </style>
  </defs>
  <g id="Layer2_0_FILL" data-name="Layer2 0 FILL">
    <path class="cls-2" d="M544.6,151.48c-11.3-16.8-25.35-32.25-42.15-46.35-20.47-17.77-41.82-30.93-64.05-39.5-19.8-8.7-43.7-14.87-71.7-18.5-34.83-3.33-69.27,1.28-103.3,13.85-33.83,12.47-63.07,31.27-87.7,56.4-17.2,18.43-31.23,38.78-42.1,61.05-11.9,24.8-18.98,51.27-21.25,79.4-.18,2.25-.63,5.53-1.35,9.85-.6,6.1-.72,13.7-.35,22.8,.17,5.13,.5,12.75,1,22.85l-12.5,.1c.93,9.27,1.37,16.53,1.3,21.8,0,3.23,.25,7.87,.75,13.9l1.05,13.8c10.47-.77,20.88-1.8,31.25-3.1,.07-9.73,.1-17.08,.1-22.05,0-8.93-.08-16.55-.25-22.85-4.1-1.13-9.5-1.62-16.2-1.45-1.87-10.1-2.85-21.83-2.95-35.2-.07-2.2,.15-5.43,.65-9.7,.5-4.4,.7-7.68,.6-9.85l6.75,5.85c2.53-38.9,12.38-73,29.55-102.3,5.37-10.03,13.8-22.33,25.3-36.9-1.6,3.77-3.82,8.13-6.65,13.1-1.6,2.83-4.03,7.08-7.3,12.75-7,12.3-11.03,24.67-12.1,37.1-.17,2.27,.13,5.25,.9,8.95,1,4.37,1.5,7.32,1.5,8.85,.33,4.47,.6,7.38,.8,8.75,.67,3.23,1.8,5.92,3.4,8.05,.17,1.53,.32,3.93,.45,7.2,.17,2.77,.63,5.03,1.4,6.8,1.07,1.73,2.72,3.72,4.95,5.95,2.83,3,4.6,4.93,5.3,5.8-4.5,.37-10.13,.62-16.9,.75-.67-5.13-1.02-7.9-1.05-8.3-.67-3.1-1.8-5.58-3.4-7.45l.4-4.15c-1.87,.17-3.15,.25-3.85,.25l2.75,3.6c-4.33,2.97-8.22,8.02-11.65,15.15l-7.35,1.45,8.15,1.75c.77,7.5,1.17,13.52,1.2,18.05h-8l.05,1.95,7.7-.25c.13,18.7,.25,30.73,.35,36.1,4.37,.37,9.5-.55,15.4-2.75,3.3-1.17,8.23-2.98,14.8-5.45v3.85c-3.83,1.9-8.18,3.65-13.05,5.25-3.47,1.13-7.93,2.4-13.4,3.8-.6,6.5-.9,14.42-.9,23.75,0,5.13,.07,12.75,.2,22.85,2.5-.37,5.03-.73,7.6-1.1v-19.2l19.1-5.3v21.25l4.9-.9c.1-6.87,.1-13.68,0-20.45,8.37-3.37,16.33-5.67,23.9-6.9,.17,9.2,.13,16.75-.1,22.65,1.67-.37,3.32-.72,4.95-1.05-.37-7.2-.37-15,0-23.4,6.97-2.03,10.5-3.08,10.6-3.15,4.07-1.07,7.68-1.83,10.85-2.3,.03,2.77,.17,6.98,.4,12.65,.83-1.53,1.85-2.83,3.05-3.9v-9.9c6.53-1.37,15.6-3.38,27.2-6.05l-.5,4.6c1.6-.37,3.27-.68,5-.95l.05-4.9c5.8-1.8,11.07-3.15,15.8-4.05,4.13-.77,6.95-1.15,8.45-1.15-.1-.1-.22-.18-.35-.25-.27-.43-.15-.62,.35-.55,.9,0,.78,.18-.35,.55,.13,.07,.25,.15,.35,.25,.1,1.6,.15,3.93,.15,7,3.96-.26,8.09-.56,12.4-.9,9.76-.77,20.41-1.77,31.95-3v-32.3c-10.97-2.57-21.28-4.43-30.95-5.6-2.73-.27-5.87-1.12-9.4-2.55-8.53,1.53-20.03,4.68-34.5,9.45,.13-14.17,.17-22.63,.1-25.4,11.33-.23,26.87-.23,46.6,0,22.17,.13,37.65,.15,46.45,.05-.07,11.77-.02,29.3,.15,52.6,1.33-1.1,2.63-2.18,3.9-3.25-.1-7.2-.12-15.32-.05-24.35,.03-11.63,.03-20.05,0-25.25,5,0,13.27-.02,24.8-.05,10.63-.13,18.88-.12,24.75,.05,0,1.9,.08,6.15,.25,12.75,0,.3,.02,.58,.05,.85v.3c.1,2.4,.15,4.58,.15,6.55-.07,.03-.12,.05-.15,.05v2.6c.3-.1,.6-.2,.9-.3,4.79-1.64,9.66-3.05,14.6-4.25,.8-.19,1.6-.37,2.4-.55,26.4-3.7,53.97-3.07,82.7,1.9,.33,.08,.64,.17,.95,.25,9.77,2.55,17.7,5.57,23.8,9.05,6.3,3.6,11.27,7.75,14.9,12.45,3.63,4.63,7.58,10.4,11.85,17.3,.93-6.23,1.93-10.65,3-13.25,.53-1.3,1.6-3,3.2-5.1,1.63-2.2,2.72-3.87,3.25-5,.53-2.53,.8-5.68,.8-9.45-.1-4.33-.1-7.57,0-9.7l-9.05,.25c-5.83-6.27-9.12-14.37-9.85-24.3l-3.6-1.7c-3-10.27-5.65-17.9-7.95-22.9l2.25-4.85c.9,2.53,2.32,6.33,4.25,11.4,1.77,4.37,3.5,8.03,5.2,11,1.47,2.77,3.05,6.77,4.75,12,1.9,5.8,3.35,9.85,4.35,12.15,4.73-.83,11.38-1.97,19.95-3.4-.67-4.27-1.85-9.4-3.55-15.4-2.2-6.6-3.77-11.6-4.7-15-.67-4.33-2.57-8.27-5.7-11.8-2.9-3.37-6.48-5.93-10.75-7.7l.8-7c2.23,5,6.32,9.72,12.25,14.15,2.27,1.73,4.03,4.18,5.3,7.35,.43,1.07,1.3,4,2.6,8.8,1.97,7.2,3.42,15.18,4.35,23.95,.77,6.63,1.32,14.78,1.65,24.45,.2,6.8-.1,14.88-.9,24.25-.37,5.4-1.35,13.75-2.95,25.05v.05l-1.35-.4c-.16-.05-.33-.1-.5-.15l-7.45-1.15c-.37,1.87-.43,5.4-.2,10.6,.17,4.43-.15,7.83-.95,10.2l-4.9-1.3-68.8-2.05c-.27-2.37-.67-7.25-1.2-14.65-.37-6.13-.93-11.02-1.7-14.65-.23-1.83-.35-3.23-.35-4.2,.07-1.63,.6-2.83,1.6-3.6,2.23-.6,6.02-.83,11.35-.7,17,.43,34,1.53,51,3.3-.7-.87-1.48-1.95-2.35-3.25-4.23-6.2-6.68-9.65-7.35-10.35-.13-.14-.26-.29-.4-.45-5.16-5.48-11.41-9.87-18.75-13.15-5.15-2.16-11.23-3.8-18.25-4.9-.22-.03-.46-.07-.7-.1h0c-2.18-.34-4.44-.62-6.8-.85-11.03-1.43-20.02-2.32-26.95-2.65-7-.37-14.25-.43-21.75-.2-7.16,.22-15.76,.79-25.8,1.7-.53,.05-1.06,.1-1.6,.15-9.57,1.57-19.48,4.62-29.75,9.15-8.33,3.7-17.48,8.62-27.45,14.75-3.27,2.27-5.8,4.57-7.6,6.9,1.53-.93,5-1.38,10.4-1.35,5.4,.1,9.6,.85,12.6,2.25,2.6,1.3,3.8,3.6,3.6,6.9-.03,.63-.58,3.47-1.65,8.5l-3,6.1c-2.9,4.73-9.07,13.07-18.5,25-8.17,10.4-13.98,19.05-17.45,25.95-3.15,6.83-5.8,14.47-7.95,22.9-2.15,8.43-3.8,17.67-4.95,27.7,1.23,.27,2.65,.53,4.25,.8,3.73,.8,10.57,5.42,20.5,13.85-8.16,.44-18.93,.67-32.3,.7h-2.5c-6.77,.03-12.75-.68-17.95-2.15-12.67-3.47-21.57-5.73-26.7-6.8-3.17-.58-6.26-1.05-9.25-1.4-6.5-.71-12.54-.83-18.1-.35-4.26,.08-8.91,.4-13.95,.95-5.01,.6-10.41,1.43-16.2,2.5-13.17,2.57-23.07,4.45-29.7,5.65-6.3,1.23-14.53,1.78-24.7,1.65-11.48-.23-19.23-.28-23.25-.15-.58,.04-1.08,.07-1.5,.1-5.93,.09-13.01,.1-21.25,.05-7.79-.02-16.63-.1-26.5-.25-22.73-.33-38.62-.47-47.65-.4,.07,.17-3.28,.33-10.05,.5H7.7l40.65,70.4L0,588.63H34.45c.33,.03,.63,.05,.9,.05,.63,0,1.68-.02,3.15-.05h.05s-.1,.05-.3,.05c4.24,0,7.01,0,8.3,0l2.5-.05h10.1v-.1c3.43,.07,6.43,.15,9,.25,11.87-.17,32.57-.17,62.1,0,8.53-.7,16.12-.63,22.75,.2,4.07,4,9.2,8.22,15.4,12.65,.77,.57,6.3,4.32,16.6,11.25,20.03,12.53,41.4,22.62,64.1,30.25,22.67,7.6,45.85,12.5,69.55,14.7,6.37,.6,13.57,.92,21.6,.95,4.73,.1,11.87,.02,21.4-.25,30.03-1.23,59.48-7.27,88.35-18.1,28.57-10.63,54.85-25.32,78.85-44.05,.4-.27,2.02-1.68,4.85-4.25,1.97-1.7,3.73-2.85,5.3-3.45,5-.53,12.53-.53,22.6,0,8.43-.03,23.83-.08,46.2-.15,6.63-.07,12.78-.1,18.45-.1,3.73-.07,7.28-.12,10.65-.15h40.75l-40.65-70.4,48.25-71.9h-59.65c-10,.07-18.15-.02-24.45-.25l2.65-9.05c2.77-1.23,3.88-2.88,3.35-4.95,5.1-.43,11.63-.47,19.6-.1,.73-2.53,1.12-5.85,1.15-9.95,.07-5.67,.15-8.98,.25-9.95l.2-3.75-5.05,.45,2.05-9.85c.7-5.3,.03-10.48-2-15.55-3.73-.8-6.52-1.33-8.35-1.6-3.37-.63-6.15-.4-8.35,.7,.53-7.13,.77-12.47,.7-16,0-.18,0-.36,0-.55-.13-6.09-1.83-10.78-5.1-14.05l-4.55-1.6c-3.7-1.07-10.07-2.22-19.1-3.45-.37-1.6-.67-3.75-.9-6.45-.22-2.46-.4-4.3-.55-5.5,0-.05,0-.12,0-.2l.1,.35c6.4-24.03,7.88-50.8,4.45-80.3-2.07-18.07-6.32-35.9-12.75-53.5-6.2-17.23-14.32-33.7-24.35-49.4m-79.2-34.1c2.5,4.63,4.4,7.98,5.7,10.05-4.6,.93-8.05,1.67-10.35,2.2-1.77,.33-3.98,1.17-6.65,2.5-3.1,1.57-5.27,2.57-6.5,3-2.5,.23-5.47,.17-8.9-.2-.2,0-3.18-.32-8.95-.95-3.13-7.43-5.5-12.98-7.1-16.65-2.77-6.67-4.95-12.32-6.55-16.95h12.25c.27,4.43,1.73,9.05,4.4,13.85,1.37,2.47,4.08,6.48,8.15,12.05,1.7,2.2,4.18,2.93,7.45,2.2,1.8-.4,4.42-1.35,7.85-2.85,.3-4.1-.88-8.85-3.55-14.25,2.43-2.07,4.87-3.45,7.3-4.15,1.4,2.3,3.22,5.68,5.45,10.15m8.8,44.5h2.45c1.27,1.47,4,3.82,8.2,7.05,3.57,2.83,6.07,5.38,7.5,7.65,1.07,1.5,2.38,4.03,3.95,7.6,1.6,3.43,3.02,5.9,4.25,7.4,.27-3.7,.48-8.77,.65-15.2,.1-7.63,.25-12.7,.45-15.2-.13-1.4,.28-2.77,1.25-4.1,.37-.53,1.35-1.63,2.95-3.3,1.03,.77,3.6,2.32,7.7,4.65,3.17,1.93,5.6,3.6,7.3,5-3.27-.53-5.68-.92-7.25-1.15-2.97-.47-5.42-.6-7.35-.4,2.2,2.37,2.77,5.72,1.7,10.05-.67,2.5-.62,5.02,.15,7.55,.7,2.5,2,4.63,3.9,6.4,1.03,.33,2.45,.12,4.25-.65,1.93-.8,3.42-1.12,4.45-.95,2.13,4.87,3.65,10.93,4.55,18.2-2.93,.67-6.93,.35-12-.95-5.57-1.5-9.58-2.12-12.05-1.85-1.83,2.53-3.25,4.45-4.25,5.75-1.77,2.17-3.72,3.28-5.85,3.35-1.67,.37-3.25-.22-4.75-1.75-1.53-2.07-2.75-3.45-3.65-4.15-8.87-7.8-14.65-12.88-17.35-15.25-5.27-1.7-10.3-1.57-15.1,.4-6.93,2.3-12.2,4.05-15.8,5.25-6.27,2.17-11.1,4.8-14.5,7.9-2.8,4.07-4.55,6.78-5.25,8.15-1.77,3.3-2.65,6.4-2.65,9.3-3.03,2-5.3,3.5-6.8,4.5-2.67,1.83-4.75,3.6-6.25,5.3-1.27,2.67-1.8,5.87-1.6,9.6,.17,2.17,.73,5.4,1.7,9.7-6.2,.8-14.48,1.12-24.85,.95-12.7-.1-21-.02-24.9,.25-.3-35.93-.35-62.87-.15-80.8,3.17,.07,13.4,.22,30.7,.45,12.57,.23,22.83,.52,30.8,.85,.77,4.23,2.27,8.13,4.5,11.7,2.13,3.7,4.88,6.83,8.25,9.4,1.67-1,4.08-1.62,7.25-1.85,3.63-.23,6.08-.63,7.35-1.2,1.9-2.1,3.67-4.92,5.3-8.45,1.77-4.2,3.1-7.3,4-9.3,3.87-.03,9.6-.57,17.2-1.6,1.53,.87,3.93,2.5,7.2,4.9,3,2.37,5.42,4,7.25,4.9,2.53,.33,4.57,.2,6.1-.4,2.3-.7,3.15-2.23,2.55-4.6-2.9,.47-5.52,.17-7.85-.9-2.53-1.03-4.48-2.8-5.85-5.3l.25-4.85M229.65,81.38c3.97-1.93,7.6-2.9,10.9-2.9-4.57,1.77-8.82,4.62-12.75,8.55h-8.05c2.17-1.17,5.47-3.05,9.9-5.65m43.2-6.3c-3-.1-5.53-.6-7.6-1.5l.6-2.5c18.83-8.23,35.42-13.1,49.75-14.6,12.67-1.07,23.52-1.47,32.55-1.2,11.73,.27,22.4,1.62,32,4.05,1.97,.77,3.92,2.3,5.85,4.6,1.03,1.3,2.62,3.25,4.75,5.85,2.1,2.97,5.33,7.33,9.7,13.1,3.6,5.13,6.38,9.8,8.35,14-8.83,.4-18.4,.33-28.7-.2-2.3-.1-7.73,.03-16.3,.4-6.67,.27-12.07,.05-16.2-.65l.7-2.75c7.33-3.4,12.93-6.78,16.8-10.15-.7-1.13-1.85-2.68-3.45-4.65-1.63-2.03-2.82-3.58-3.55-4.65-.4-1.33-.45-2.92-.15-4.75,0-.2,.32-1.72,.95-4.55-2.57-.53-6.52-1.02-11.85-1.45-5.3-.47-9.25-.93-11.85-1.4-4.8-.67-10.92-.52-18.35,.45-10.2,1.27-16.27,1.93-18.2,2-.3,.73-.93,1.93-1.9,3.6-.53,1.4-.13,2.45,1.2,3.15,2.87,1.53,5.7,3.72,8.5,6.55,1.93,1.93,4.32,4.68,7.15,8.25,.1,4.53-.35,8.3-1.35,11.3-3.83,.13-6.7,.23-8.6,.3-3.47,.03-6.38,0-8.75-.1l2.15-3.7c-2.9-.8-4.82-2.32-5.75-4.55l4.95-.95-4.4-4.95c-6.63,.8-11.63,1.2-15,1.2,0,2.97,.97,7.22,2.9,12.75-2.3-.17-6.72-.07-13.25,.3-5.57,.23-9.97,.17-13.2-.2-3.77-1.93-7.4-5.35-10.9-10.25,2.27-.37,4.83,.4,7.7,2.3,4.03,2.53,6.45,3.95,7.25,4.25,6.1-2.2,11.8-3.88,17.1-5.05l-.65-5.05c3.03-2.67,5.35-4.62,6.95-5.85l-.1-3c-3.5,.17-6.1,.25-7.8,.25m-.9,34.1l-.7-4.8c-2.9,.17-4.4,.25-4.5,.25-.6,2.43-2.07,4.68-4.4,6.75-3,2.2-5.22,3.83-6.65,4.9-.07,.17-.28,2.12-.65,5.85-.17,2.3-.6,4.12-1.3,5.45-1.07,2.4-2.87,4.18-5.4,5.35-2.67,1.17-5.15,1.12-7.45-.15-2-1.43-3.33-3.7-4-6.8-.27-3.63-.5-6.33-.7-8.1,.23-3.6,1.88-7,4.95-10.2,2.07-2.2,5.17-4.53,9.3-7,1.93-.9,3.92-.93,5.95-.1,1.93,.83,3.27,2.28,4,4.35,1.7-1.6,4.3-2.4,7.8-2.4,4.53,0,7.38-.18,8.55-.55,2.67-.63,5.8,.23,9.4,2.6,4,2.6,7.07,3.9,9.2,3.9l3.3-7.6,12.35-.35-.95,6c4.37,1.4,7.02,2.32,7.95,2.75,2.93,1.3,5.23,2.95,6.9,4.95,3.03-4.37,5.33-8.88,6.9-13.55,1.27-.1,3.13-.33,5.6-.7,2.2-.13,4,.1,5.4,.7l-.25-6.1,2.15,.9-1.45,4.3,2.1,.45c-.23,9.03-.35,19.88-.35,32.55,0,7.17,.03,17.97,.1,32.4-10.5,.17-34.1,.3-70.8,.4-.17-1.97,.53-3.62,2.1-4.95,.73-.7,2.35-1.65,4.85-2.85-1.53-.2-2.68-.38-3.45-.55-1.33-.2-2.27-.75-2.8-1.65,0-2.6,.05-4.62,.15-6.05l-4.3,.8c.57-.7,1.37-1.87,2.4-3.5,.97-1.37,2.08-2.17,3.35-2.4,1.83-.3,3.92-.12,6.25,.55,1.37,.33,3.38,1,6.05,2,2.23-.7,3.85-1.28,4.85-1.75,1.73-1.03,2.87-2.3,3.4-3.8,1.5-3.2,1.33-6.67-.5-10.4-1.23-2.57-3.4-5.43-6.5-8.6-1.7-1.4-3.17-3.6-4.4-6.6-1.17-3.43-2.13-5.97-2.9-7.6-2.33,.03-5.97,.35-10.9,.95m-11.85,61.8c1.9-1.4,3.93-2,6.1-1.8,7.33,0,23.8-.02,49.4-.05,9.1-.6,19.02-.75,29.75-.45-.1,35.47-.12,62.08-.05,79.85-12.23,.3-27.7,.45-46.4,.45-27.27-.03-42.77-.05-46.5-.05,1.13-26.47,2.55-50.65,4.25-72.55,.43-2.23,1.58-4.03,3.45-5.4m-26.55,20.45c5.67-2.73,11.87-4.72,18.6-5.95-1.5,16.9-2.68,38.02-3.55,63.35-6.27,.23-14.82,.32-25.65,.25-12.4,0-21,.03-25.8,.1,.13-.23,1.13-2.17,3-5.8,1.3-2.33,1.47-4.33,.5-6-.7-1.67-2.17-3.13-4.4-4.4-1.17,1.53-2.8,3.93-4.9,7.2-2.03,2.8-4.08,4.88-6.15,6.25-1.83-.97-3.07-2.68-3.7-5.15,0-.23-.3-2.38-.9-6.45,.3-11.1,2.83-20.13,7.6-27.1,2.3-.93,5.17-1.35,8.6-1.25,2.03,.07,4.98,.37,8.85,.9,2.37,.4,4.23,1.7,5.6,3.9,1.1,1.77,1.87,4,2.3,6.7l3.8-.15c1.3-1.73,2.3-3.8,3-6.2,.4-1.3,.93-3.52,1.6-6.65,2.53-4.67,6.4-9.18,11.6-13.55m172.65-107.05c-3.23-5.33-5.82-9.25-7.75-11.75-.53-.9-2.25-2.97-5.15-6.2-2.13-2.57-3.52-4.82-4.15-6.75,3.47,.7,7.37,1.85,11.7,3.45,1.97,.67,5.77,2.15,11.4,4.45,13.1,5.23,23.57,10.42,31.4,15.55,2.53,1.53,4.45,3.72,5.75,6.55-1.37-.57-2.77-1.45-4.2-2.65-.63-.53-1.83-1.65-3.6-3.35l-1.15,4.9c-4.97-.87-9.32-1.38-13.05-1.55,0,3.27,.08,6.43,.25,9.5h-6.9c-2.67,0-4.95-.15-6.85-.45-1.83-2.5-4.4-6.4-7.7-11.7m-57.2,81.05c-.57-29-.9-50.7-1-65.1,4.8-.17,13.4-.15,25.8,.05l-.7,2.7-5.25,1.25c1.97,2.77,4.52,4.8,7.65,6.1,3.6,1.37,6.57,1.03,8.9-1l-4.5-9.05c3.53,.1,8.85,.1,15.95,0,6.33,0,11.63,.17,15.9,.5,.97,2.83,2.82,7.02,5.55,12.55,2.17,5.03,3.15,9.43,2.95,13.2-1.17-1.77-2.13-3.03-2.9-3.8-1.17-1.23-2.5-1.85-4-1.85-3.03,2.9-5.17,5.33-6.4,7.3-2.03,3-2.73,6-2.1,9,.13,1.63,.48,4.03,1.05,7.2l9.85-7.85,5.5-.15c1.37,3.63,3.02,7.28,4.95,10.95l6.3-.8-3.5,7.15c3.53,5.83,5.85,9.95,6.95,12.35-6.4,.33-13.68,.02-21.85-.95l-2.65-4.5-.3,4.8c-27.6-.2-48.32-.22-62.15-.05m-101.45,86.45c-.2,4.33-.27,8.27-.2,11.8-2.93,.8-7.53,2.45-13.8,4.95-5.83,2.43-10.43,4.07-13.8,4.9-2.83,.8-7.62,2.62-14.35,5.45-6,2.47-10.82,4.13-14.45,5-2,.57-3.8-.32-5.4-2.65-2-3-3.5-4.67-4.5-5-4.3-2-9.32-3.68-15.05-5.05-3.67-.83-8.85-1.73-15.55-2.7l-1.55,5.45c-1.33-6.67-.92-14.07,1.25-22.2,2.23,.03,5.6,.05,10.1,.05,3.9,0,7.28,.17,10.15,.5,1.5,.33,3.3,1.22,5.4,2.65,2.6,1.7,4.35,2.77,5.25,3.2,1.53,.8,3.9,1.43,7.1,1.9,3.47,.6,5.92,1.22,7.35,1.85,1.4,1.23,2.9,3.07,4.5,5.5,2.47,4.1,3.73,6.2,3.8,6.3l3.65-4.25,7.25,2.1c.3-4.13-1.47-8.17-5.3-12.1-.5,.23-1.25,.68-2.25,1.35-.87,.57-1.67,.85-2.4,.85-4.13-4.6-7.13-7.8-9-9.6,6.97-.2,15.58-.3,25.85-.3,5.77,0,14.42,.02,25.95,.05m-30.3,28.15l-.1,7.65c-9.83,3.53-17.23,6.12-22.2,7.75-8.67,3.1-16.2,5.3-22.6,6.6l.55-4.35c21.33-8.8,36.12-14.68,44.35-17.65m3.2,6.6l.25-8.45c2.97-1.23,7.48-2.92,13.55-5.05,5.97-2.07,10.47-3.72,13.5-4.95l-.1,10.35c-6.03,1.9-10.55,3.32-13.55,4.25-5.33,1.6-9.88,2.88-13.65,3.85m37.8-5.95c10-3.6,18.02-6.05,24.05-7.35,0,2,.1,6.35,.3,13.05,.3,5.3,.2,9.6-.3,12.9-3,.47-6.85,1.38-11.55,2.75-6.27,1.7-10.13,2.73-11.6,3.1-.43-8.23-.73-16.38-.9-24.45m-31.95,8.9c5.43-1.77,14.97-4.43,28.6-8-.5,3.03-.8,7.28-.9,12.75-.1,5.93-.23,10.12-.4,12.55-1.73,.33-6.23,1.37-13.5,3.1-5.5,1.23-9.98,2.05-13.45,2.45,0-5.13-.12-12.75-.35-22.85m-24.45,18.7c.23-4.87,.35-8.37,.35-10.5,2-.83,5.33-2.02,10-3.55,4.27-1.43,7.58-2.63,9.95-3.6,.23,7.7,.35,11.7,.35,12,.03,4.67-.08,8.72-.35,12.15-1.73,.27-5.18,1-10.35,2.2-4.27,1.03-7.67,1.68-10.2,1.95,0-2.57,.08-6.12,.25-10.65m-28.85,8.7c0-4.27,.37-7.73,1.1-10.4,2.47-.43,6.37-1.6,11.7-3.5,5.13-1.73,9.12-2.83,11.95-3.3-.17,9.63-.48,16.87-.95,21.7-2.37,.5-6.35,1.53-11.95,3.1-5.07,1.43-9.08,2.35-12.05,2.75,.13-1,.2-4.45,.2-10.35m-5.15-8.4v4.4l-.1,7.35c-.03,2.7-.05,5.73-.05,9.1-4.2,1.07-7.37,1.9-9.5,2.5-3.67,.97-6.82,1.68-9.45,2.15v-2.75c-.2-7.5-.3-13.23-.3-17.2,2.4-.23,5.65-1.15,9.75-2.75,4.37-1.53,7.58-2.47,9.65-2.8m299.95-11c.3,3.33,.57,5.97,.8,7.9-5.77,1-10.1,1.55-13,1.65-4.8,.17-9.02-.12-12.65-.85,2.13-.33,5.82-.58,11.05-.75,4.73-.17,8.45-.48,11.15-.95,.13-4.07,.17-7.12,.1-9.15-.1-3.63-.82-6.57-2.15-8.8-4.77-3.7-10.82-6.1-18.15-7.2-5.23-.77-11.87-.92-19.9-.45,7.2-1.47,14.13-1.7,20.8-.7,7.43,1.17,13.75,3.87,18.95,8.1,1.53,2.67,2.53,6.4,3,11.2m-12.8,16.55c1,.17,3.85,.43,8.55,.8,3.5,.27,6.32,.77,8.45,1.5,0,.67,.2,5.52,.6,14.55,.3,5.77,.22,10.57-.25,14.4-1.97,1.97-3.68,2.68-5.15,2.15-2.53-.37-6.2-.57-11-.6-4.93-.13-8.55-.32-10.85-.55-.97-4.5-1.5-9.93-1.6-16.3,.1-7.43,.13-12.98,.1-16.65,4.7,0,8.42,.23,11.15,.7m21.4,60.85c3.8-2.53,8.62-3.98,14.45-4.35,1.6-.17,6.7-.17,15.3,0,8.73,.2,18.3,3.32,28.7,9.35-2.07-.03-4.48-.55-7.25-1.55-3.2-1.2-5.57-2.02-7.1-2.45-7.27-2.3-17.07-3.27-29.4-2.9-3.9,.07-7.52,1.08-10.85,3.05-3.57,2-6.32,4.6-8.25,7.8-1.23,1.77-2.53,4.25-3.9,7.45-1.9,4.33-3.05,6.92-3.45,7.75-.9,.17-1.42-.28-1.55-1.35,.13-1.27,.12-2.15-.05-2.65,.17-4,1.55-7.9,4.15-11.7,2.37-3.33,5.43-6.15,9.2-8.45m94.8-40.65v4.5c-1.4,1-3.43,1.77-6.1,2.3,0-3.7,.08-6.47,.25-8.3,2.57,.37,4.52,.87,5.85,1.5m-22.9,45.95c-.47-3.37-.7-7.23-.7-11.6v-11.7c17.67-.77,35.37,.3,53.1,3.2,.9,9.63,.35,18.93-1.65,27.9-2.37,9.8-3.67,16.85-3.9,21.15-1-1.47-1.95-3.83-2.85-7.1-3.13,.1-9.3-.03-18.5-.4-7.73-.33-13.9-.32-18.5,.05-.47,2.3-1.23,4.95-2.3,7.95,6.47,0,17.3,.27,32.5,.8,14,.5,24.85,.68,32.55,.55l.1,1.55c-10.33,.33-22.25,.42-35.75,.25-4.03-.07-15.97-.32-35.8-.75-6.47-.1-11.33-.2-14.6-.3-5.77-.2-10.58-.65-14.45-1.35,4.27-.6,9.75-.87,16.45-.8,9.73,.03,15.23,.03,16.5,0,.37-3.9,.18-8.8-.55-14.7-1.1-9.03-1.65-13.93-1.65-14.7m-31.05,2.2c4.8,.3,11.18,.37,19.15,.2-.1,6.6-.1,11.55,0,14.85-4.63,0-8.08-.05-10.35-.15-4.07-.1-7.48-.52-10.25-1.25,.27-3.7,.75-8.25,1.45-13.65m63.8,88.7c12.4,.37,21.4,4,27,10.9,4.63,5.83,6.42,12.83,5.35,21-1.07,7.97-4.52,14.28-10.35,18.95-4.1,3.53-9.33,5.98-15.7,7.35-4.3,.93-10.12,1.5-17.45,1.7l-.05,31.5c-4.43,.07-11.08,.03-19.95-.1,.2-50.6,.25-80.98,.15-91.15,4.63-.2,14.97-.25,31-.15m-120.2-63.45l-.3,3c-9.33,.2-16.32,.27-20.95,.2-8.13-.13-15.03-1.07-20.7-2.8,5.03-.57,12.02-.73,20.95-.5,10.1,.3,17.1,.33,21,.1m17.7,63.3c4.37-.07,10.92-.1,19.65-.1,.17,20.33,.23,50.78,.2,91.35-2.97,.2-9.62,.23-19.95,.1,.07-18.57-.02-30.95-.25-37.15-13.77,0-24.07,.12-30.9,.35l-.1,37c-7.37,.13-13.97,.1-19.8-.1l.15-91.45c4.33-.07,10.83-.1,19.5-.1,.27,18.03,.27,30.05,0,36.05,4.33,.83,9.57,1.22,15.7,1.15,3.5-.03,8.73-.23,15.7-.6,.13-16.17,.17-28.33,.1-36.5m55.7,45.8c.1,19.77,.1,35.02,0,45.75-4.43,.07-11.12,.03-20.05-.1,0-40.67,.03-71.18,.1-91.55,10.33,0,16.98,.07,19.95,.2-.07,9.4-.07,24.63,0,45.7m71.5-112.15c-.47-5.5-.43-10.92,.1-16.25,3,.13,7.52,.15,13.55,.05,1.93,13-.3,18.38-6.7,16.15l-6.95,.05M106.15,498.93v9.8c13.27,.1,23.22,.1,29.85,0,.1,6.1,.07,11.6-.1,16.5l-29.75,.1-.15,20.45h17.4c6.97,0,12.78,.08,17.45,.25-.17,4.53-.23,9.95-.2,16.25-16.47,.5-35,.53-55.6,.1-.1-40.6-.07-71.05,.1-91.35,12.23-.07,30.47-.1,54.7-.1,.9,5.57,.9,11.65,0,18.25-14.9,.07-26.08-.02-33.55-.25-.1,2.67-.15,6-.15,10m306.4-212.4c2.37-.7,4.97-1.27,7.8-1.7,.6,10.43,.78,23.35,.55,38.75-.1,8.63-.28,21.55-.55,38.75-.07,2.63-.07,9.83,0,21.6,0,8.87-.17,16.08-.5,21.65-2.07-5.13-4.82-7.83-8.25-8.1-6.03-.43-15.53-.52-28.5-.25-12.4,.2-21.88,.02-28.45-.55,8.1-.83,17.7-1.25,28.8-1.25,6.37,0,15.97,.08,28.8,.25-.27-9.5-.37-27.08-.3-52.75,.07-22.27-.17-39.87-.7-52.8l1.3-3.6m-193.25,184.25c.07,5.4,.03,10.3-.1,14.7-2.37,3.07-5.2,7.13-8.5,12.2-4.9,7.47-7.62,11.57-8.15,12.3-2.4,3.97-6.13,9.8-11.2,17.5-4.43,7-7.9,13.03-10.4,18.1,8.57,.07,21.38,.07,38.45,0,.1,5.63,.1,11.3,0,17-28.07,.23-49.08,.17-63.05-.2,.07-.43,.1-3.67,.1-9.7,0-3.9,.4-7.08,1.2-9.55,2.3-3.43,8.65-12.42,19.05-26.95,7.9-10.97,14.1-20.08,18.6-27.35l-38.05,.1v-18c34.43,0,55.12-.05,62.05-.15m66.85,15.95c-2.9-.67-5.52-.45-7.85,.65-2.03,.67-3.67,2.08-4.9,4.25-.63,1.2-1.47,3.32-2.5,6.35-5.17,.17-11.03,.18-17.6,.05-.17-4.27,.6-8.3,2.3-12.1,1.77-4.03,4.3-7.28,7.6-9.75,3.9-2.97,8.45-4.9,13.65-5.8,4.97-.87,9.98-.77,15.05,.3,4.93,.67,9.33,2.52,13.2,5.55,4.1,3.2,6.68,7.1,7.75,11.7,1.13,5.57,1.2,11.08,.2,16.55-1.2,5.67-3.43,10.67-6.7,15-2.6,3.37-7.07,7.8-13.4,13.3-6.37,5.5-10.85,9.88-13.45,13.15,3,.07,7.17,.1,12.5,.1h5.2c7.87,0,13.75,.02,17.65,.05v16.4c-8.17,.13-15.78,.2-22.85,.2-4.43,.07-8.65,.1-12.65,.1-10,0-18.83-.07-26.5-.2v-8.3c0-3.43,.27-6.22,.8-8.35,3.83-4.23,8.85-9.15,15.05-14.75,7.1-6.2,12.35-10.9,15.75-14.1,5.13-4.77,8.58-9.43,10.35-14,1.3-3.67,.93-8.12-1.1-13.35-3-1.57-5.52-2.57-7.55-3m139.8-50.05c5.83,0,10.7,.35,14.6,1.05l2.1,7.7c-5,.83-10.57,1.23-16.7,1.2-4.6,0-10.22-.3-16.85-.9,1.23-3.03,1.95-6.02,2.15-8.95,3.23,.1,8.13,.07,14.7-.1m-24.8,39.05c2.6,2.2,4.67,4.77,6.2,7.7,1.07,1.93,1.73,4.35,2,7.25,0,.07,.13,2.58,.4,7.55l-17.25,.15c-.37-2.37-.73-4.13-1.1-5.3-.43-2-1.32-3.5-2.65-4.5-3.53-3.2-8.52-4.03-14.95-2.5-3.97,1.53-5.95,4.75-5.95,9.65-.03,4.9,2.02,7.97,6.15,9.2,1.87,.6,6.28,1.52,13.25,2.75,5.6,1,9.95,2.33,13.05,4,4.33,1.83,7.7,4.97,10.1,9.4,2.23,4.27,3.02,8.78,2.35,13.55,.23,5.77-1.45,11.1-5.05,16-3.53,4.9-8.12,8.17-13.75,9.8-5.13,1.5-10.23,2.15-15.3,1.95-5.47-.17-10.53-1.22-15.2-3.15-6.57-2.73-10.82-6.1-12.75-10.1-1-2.3-1.68-5.05-2.05-8.25-.23-1.7-.4-4.53-.5-8.5l18.85,.1c.27,3.23,.7,5.63,1.3,7.2,1,2.5,2.6,4.18,4.8,5.05,3.23,1.4,6.5,1.85,9.8,1.35,3.67-.47,6.5-1.97,8.5-4.5,1.77-2.5,2.27-5.38,1.5-8.65-.8-3.43-2.68-5.7-5.65-6.8-1.13-.5-6.6-2.08-16.4-4.75-6.6-1.8-11.6-4.27-15-7.4-5.67-5.5-7.98-12.65-6.95-21.45,1.13-8.83,5.22-15.08,12.25-18.75,4.67-2.37,9.77-3.75,15.3-4.15,5.3-.43,10.55,.13,15.75,1.7,3.27,.8,6.25,2.27,8.95,4.4m-74,105.1c5.37-.13,9.35-.28,11.95-.45,.27,4.53,.4,10.85,.4,18.95-.1,8.8-.05,15.08,.15,18.85,1.17,.07,4.47,.07,9.9,0,4.07,0,7.33,.08,9.8,.25,.2,1.77,.32,3.9,.35,6.4,0,1.37-.02,3.47-.05,6.3h-32.5c-.07-16.8-.07-33.57,0-50.3m51.4,6.2c4.07-5.37,9.92-8.05,17.55-8.05,7.33-.2,13.42,2.15,18.25,7.05,1.3,1.23,2.37,2.98,3.2,5.25,.2,.77,.7,2.73,1.5,5.9l-12.5,1.35c-.63-2.37-1.78-4.32-3.45-5.85-1.87-1.63-3.98-2.28-6.35-1.95-3.03-.33-5.65,.75-7.85,3.25-2.1,2.27-3.27,4.9-3.5,7.9-.3,3.37-.38,5.77-.25,7.2,.17,2.7,.93,4.88,2.3,6.55,1.5,2.13,3.58,3.6,6.25,4.4,2.63,.83,5.15,.83,7.55,0,1.23-.4,2.35-1.3,3.35-2.7,1.03-1.77,1.77-3.1,2.2-4l11.6,.15c-.37,3.63-1.67,6.92-3.9,9.85-2.23,3-5.02,5.07-8.35,6.2-4.57,1.17-8.82,1.53-12.75,1.1-4.7-.43-8.63-1.9-11.8-4.4-5.97-4.3-9.2-10.58-9.7-18.85-.37-7.9,1.85-14.68,6.65-20.35m-99.2-6.65h12.65v20.35c0,1.37,.03,2.85,.1,4.45,0,6.37,.02,10.7,.05,13,6.87,.07,13.07,.02,18.6-.15,.23,3.53,.3,7.98,.2,13.35-14.13-.07-24.67-.18-31.6-.35,.1-9.5,.1-18.58,0-27.25v-7c-.07-1.5-.1-2.95-.1-4.35h.1v-12.05m170.65,45.15c-4,1.53-6.03,2.17-6.1,1.9-2.67-.97,1.6-3.9,12.8-8.8,11.2-4.97,22.67-11.02,34.4-18.15,5.87-3.6,10.83-6.58,14.9-8.95,4.03-2.43,7.05-3.47,9.05-3.1,.1,1.9-5,5.98-15.3,12.25-10.3,6.23-23.37,13.03-39.2,20.4-2.97,1.4-6.48,2.88-10.55,4.45m-204.8-1.4c7.07,3.57,6.63,4.22-1.3,1.95-23.97-9.1-45.42-20.82-64.35-35.15-3.1-3.73,4.83-.02,23.8,11.15,18.23,10.1,32.18,17.45,41.85,22.05m245.9-226.05c2.23,1,4.1,3.1,5.6,6.3,2,4.17,3,9.23,3,15.2,0,2.54-.18,4.92-.55,7.15-.49,2.94-1.31,5.61-2.45,8-.6,1.4-1.28,2.58-2.05,3.55h-.1c-1.47,1.83-3.12,2.75-4.95,2.75-2.83,0-5.22-2.1-7.15-6.3-1.97-4.2-2.95-9.25-2.95-15.15s.98-11.03,2.95-15.2c1.33-2.83,2.85-4.7,4.55-5.6,1.4-1.37,2.77-1.6,4.1-.7m-100.3,8.6c2.77,0,5.15,1.77,7.15,5.3,1.93,3.53,2.9,7.82,2.9,12.85s-.97,9.27-2.9,12.8c-.63,1.2-1.33,2.18-2.1,2.95v.1h-.1c-1.47,1.5-3.12,2.25-4.95,2.25-2.77,0-5.17-1.77-7.2-5.3-1.09-1.99-1.87-4.2-2.35-6.65-.37-1.91-.55-3.96-.55-6.15,0-5.03,.97-9.32,2.9-12.85,2.03-3.53,4.43-5.3,7.2-5.3m-18.15,15.85c-.03,4.95-1,9.17-2.9,12.65-.67,1.17-1.38,2.17-2.15,3h-.1c-1.47,1.53-3.12,2.3-4.95,2.3-2.77,0-5.15-1.77-7.15-5.3-1.97-3.53-2.95-7.82-2.95-12.85s.98-9.32,2.95-12.85c2-3.53,4.38-5.3,7.15-5.3s5.17,1.77,7.2,5.3c1.93,3.53,2.9,7.82,2.9,12.85v.2m169.35,14.5c5.47,.13,13.62,.33,24.45,.6,.3,2.73,.9,5.73,1.8,9-.52,0-9.25,.05-26.2,.15-.58,0-1.18,0-1.8,0-11.23,.07-20.53-.25-27.9-.95,1.53-1.5,2.65-2.73,3.35-3.7,1.07-1.4,1.72-2.87,1.95-4.4,6.73-.7,14.85-.93,24.35-.7m-74-119.05c-2.9-.67-6.42-1.1-10.55-1.3-4.8-.1-8.35-.2-10.65-.3,.07,1.7,.1,6.22,.1,13.55,0,5.53,.1,10.05,.3,13.55,5.6,.27,12.88,.35,21.85,.25,.13-9.57-.22-18.15-1.05-25.75m-249.8-80.05c2.9,1.4,5.75,2.07,8.55,2-.13-1.8-.73-3.75-1.8-5.85-.6-1.1-1.72-2.8-3.35-5.1-4.2,.37-7.83,1.78-10.9,4.25,2.97,2.17,5.47,3.73,7.5,4.7M79.15,370.33c-.62,.1-1.22,.2-1.8,.3,3.97,12.23,8.29,22.3,12.95,30.2,7.75,13.22,16.45,20.44,26.1,21.65,.23,.07,.5,.1,.8,.1l.6,.1c6.63,.6,14.68,.25,24.15-1.05,5.77-.8,12.08-1.98,18.95-3.55,.03,0,.04-.02,.05-.05,6.86-1.54,14.26-3.48,22.2-5.8,1.73-.47,3.45-.93,5.15-1.4,1.67-.53,3.32-1.07,4.95-1.6,1.4-.47,2.58-.83,3.55-1.1h.25c.53-.1,1.03-.18,1.5-.25l1.6-.25c19.6-3.3,38.35-3.72,56.25-1.25,11.07,1.27,23.13,4.98,36.2,11.15,.06,.02,.11,.04,.15,.05,1.78,.76,6.27,3.01,13.45,6.75,3.33,1.73,7.15,3.63,11.45,5.7,1.8-9.94,3.87-19.31,6.2-28.1,1.3-4.88,2.69-9.58,4.15-14.1,3.43-9.03,10.2-19.82,20.3-32.35,11.93-14.73,19.52-25.03,22.75-30.9,1.53-3.13,2.48-5.33,2.85-6.6,.7-2.67,.48-5.02-.65-7.05-4.53-1.17-9.63-1.73-15.3-1.7-1.85,.05-4.07,.17-6.65,.35h0c-.38,.03-.76,.04-1.15,.05-2.27,.2-4.81,.43-7.6,.7-.12,.02-.37,.05-.75,.1-.04,0-.09,0-.15,0-3.82,.42-19.27,1.97-46.35,4.65-19.03,1.97-34.78,4.17-47.25,6.6-.8,.17-1.55,.35-2.25,.55-1.48,.37-2.85,.75-4.1,1.15-1.26,.45-2.41,.92-3.45,1.4-.6,.23-1.23,.5-1.9,.8-2.33,1.17-4.33,2.58-6,4.25-.23,.17-.47,.4-.7,.7-.57,.67-1.68,2.15-3.35,4.45-.2,.2-.38,.42-.55,.65-.02,.03-.06,.07-.1,.1-.66,1.01-1.43,2.13-2.3,3.35-2.53,3.57-4.95,6.12-7.25,7.65-2.93,1.93-6.53,3.53-10.8,4.8-.27,.1-.62,.2-1.05,.3-2.23,.6-5.75,1.43-10.55,2.5-1.29,.3-2.62,.57-4,.8-.27,.05-.56,.1-.85,.15l-33.65,6.25c-4.47,.7-8.95,1.35-13.45,1.95-13.2,1.8-26.45,3.18-39.75,4.15h-.65c-9.28,.9-16.68,1.8-22.2,2.7m419.3-28.55c.5,0,1.02,.03,1.55,.1,14.7,.03,26.78,.43,36.25,1.2l19.5,.65,.35-.9c.13-6.13,.17-10.7,.1-13.7-.07-5.33-.55-9.92-1.45-13.75-4.3-.83-9.9-1.47-16.8-1.9-9.1-.5-14.75-.87-16.95-1.1-3.47-.17-9.23-.52-17.3-1.05-7.57-.6-13.38-.93-17.45-1,0,9.73,.7,20.22,2.1,31.45h10.1M94.45,426.18h-.25c-3.83-.87-7.52-1.88-11.05-3.05-1.83-.63-4.22-1.73-7.15-3.3-3.33-1.8-5.68-3-7.05-3.6,5.73,7.07,11.98,12.77,18.75,17.1,7.77,4.9,15.75,7.75,23.95,8.55,6.83,1.61,14.37,2.25,22.6,1.9,3.36-.11,6.83-.4,10.4-.85,6.43-.8,17.3-3.07,32.6-6.8,15.19-3.84,31.89-6.69,50.1-8.55,4.84-.48,9.79-.9,14.85-1.25,5.57-.37,11.9,.03,19,1.2,1.37,.18,4.68,.8,9.95,1.85,2.45,.51,5.31,1.11,8.6,1.8,2.4,.4,5.92,1.22,10.55,2.45,4.2,1.03,13,3.02,26.4,5.95,.27-1.6,.57-2.88,.9-3.85,.3-.89,.26-1.83-.1-2.8-.05-.12-.1-.23-.15-.35l-23.9-7.7c-1.13-.45-2.23-.89-3.3-1.3-6.1-2.39-11.15-4.22-15.15-5.5-6.9-2.23-13.32-3.7-19.25-4.4-14.27-2.27-29.97-2.4-47.1-.4-12.73,1.6-28.25,4.7-46.55,9.3-.06,.01-.13,.03-.2,.05-8.33,1.94-14.61,3.31-18.85,4.1-.06,.01-.12,.01-.2,0-7.28,1.5-13.64,2.22-19.1,2.15-10.57,.13-20.33-.77-29.3-2.7M488.9,68.13c37.23,22.87,66.38,50.52,87.45,82.95,10.57,16.73,19.4,34.72,26.5,53.95,6.83,18.73,11.82,38.2,14.95,58.4,5.2,36,3.97,69.9-3.7,101.7-.53,2.1-.8,4.53-.8,7.3-.07,1.63-.07,4.07,0,7.3,.63,.12,1.25,.22,1.85,.3,1.89,.27,3.72,.35,5.5,.25,11.73-33.17,14.83-72.68,9.3-118.55-4.67-33.03-14.35-64.08-29.05-93.15-15.4-30.33-35.12-56.1-59.15-77.3-27.9-25.87-58.48-44.78-91.75-56.75-27.37-10.8-58.13-16.77-92.3-17.9-37.67-1-72.47,3.87-104.4,14.6-38.2,12-74.08,33.7-107.65,65.1-18.13,18.2-33.33,37-45.6,56.4-16.03,27.4-26.97,53.67-32.8,78.8-5.33,22.07-8.03,46.65-8.1,73.75,.53,12.47,1.05,21.77,1.55,27.9,.97,10.33,2.43,19.55,4.4,27.65,3.27,11.8,6.1,20.88,8.5,27.25,3.4,9.63,10.35,22.33,20.85,38.1l-2.2-10.5c-2.75-4.65-5.08-8.6-7-11.85-.02-.02-.03-.06-.05-.1-4.15-7-6.35-10.72-6.6-11.15-4.67-9.1-7.43-17.5-8.3-25.2,2.47-.53,5.23-.9,8.3-1.1l-.35-2.35c-7.53-34.33-8.63-68.95-3.3-103.85,5.5-35.83,17.28-68.67,35.35-98.5,14.3-23.63,30.15-43.25,47.55-58.85,23.3-22.17,49.07-39,77.3-50.5,21.17-9.07,45.72-15.62,73.65-19.65,31.23-4.17,62.27-3.3,93.1,2.6,31.53,6.03,60.53,17.02,87,32.95m-206.85,237c1.13-.37,1.25-.55,.35-.55-.5-.07-.62,.12-.35,.55Z"/>
    <path class="cls-1" d="M566.45,437.63c-10.83-.27-18.98-.47-24.45-.6-9.5-.23-17.62,0-24.35,.7-.23,1.53-.88,3-1.95,4.4-.7,.97-1.82,2.2-3.35,3.7,7.37,.7,16.67,1.02,27.9,.95,.62,0,1.22,0,1.8,0,16.95-.1,25.68-.15,26.2-.15-.9-3.27-1.5-6.27-1.8-9m-196.7-2.45c1.9-3.48,2.87-7.7,2.9-12.65v-.2c0-5.03-.97-9.32-2.9-12.85-2.03-3.53-4.43-5.3-7.2-5.3s-5.15,1.77-7.15,5.3c-1.97,3.53-2.95,7.82-2.95,12.85s.98,9.32,2.95,12.85c2,3.53,4.38,5.3,7.15,5.3,1.83,0,3.48-.77,4.95-2.3h.1c.77-.83,1.48-1.83,2.15-3m-12.7-22.55c1.53-2.73,3.37-4.1,5.5-4.1s3.97,1.37,5.5,4.1c1.53,2.63,2.3,5.9,2.3,9.8s-.77,7.12-2.3,9.85c-.47,.9-1,1.62-1.6,2.15-1.23,1.23-2.53,1.85-3.9,1.85-2.13,0-3.97-1.33-5.5-4-1.47-2.73-2.2-6.02-2.2-9.85s.73-7.17,2.2-9.8m5.5-4.1c-2.13,0-3.97,1.37-5.5,4.1-1.47,2.63-2.2,5.9-2.2,9.8s.73,7.12,2.2,9.85c1.53,2.67,3.37,4,5.5,4,1.37,0,2.67-.62,3.9-1.85,.6-.53,1.13-1.25,1.6-2.15,1.53-2.73,2.3-6.02,2.3-9.85s-.77-7.17-2.3-9.8c-1.53-2.73-3.37-4.1-5.5-4.1m35.4,3.45c-2-3.53-4.38-5.3-7.15-5.3s-5.17,1.77-7.2,5.3c-1.93,3.53-2.9,7.82-2.9,12.85,0,2.19,.18,4.24,.55,6.15,.48,2.45,1.26,4.66,2.35,6.65,2.03,3.53,4.43,5.3,7.2,5.3,1.83,0,3.48-.75,4.95-2.25h.1v-.1c.77-.77,1.47-1.75,2.1-2.95,1.93-3.53,2.9-7.8,2.9-12.8s-.97-9.32-2.9-12.85m-7.45-1.95c2.1,0,3.85,1.48,5.25,4.45,1.43,2.83,2.15,6.3,2.15,10.4s-.72,7.55-2.15,10.45c-.47,1-.97,1.8-1.5,2.4-1.1,1.3-2.35,1.95-3.75,1.95-1.93,0-3.62-1.45-5.05-4.35-.7-1.45-1.23-3.05-1.6-4.8-.33-1.73-.5-3.61-.5-5.65,0-4.1,.7-7.57,2.1-10.4,1.43-2.97,3.12-4.45,5.05-4.45m5.25,4.45c-1.4-2.97-3.15-4.45-5.25-4.45-1.93,0-3.62,1.48-5.05,4.45-1.4,2.83-2.1,6.3-2.1,10.4,0,2.04,.17,3.92,.5,5.65,.37,1.75,.9,3.35,1.6,4.8,1.43,2.9,3.12,4.35,5.05,4.35,1.4,0,2.65-.65,3.75-1.95,.53-.6,1.03-1.4,1.5-2.4,1.43-2.9,2.15-6.38,2.15-10.45s-.72-7.57-2.15-10.4m100.95-10.1c-1.5-3.2-3.37-5.3-5.6-6.3-1.33-.9-2.7-.67-4.1,.7-1.7,.9-3.22,2.77-4.55,5.6-1.97,4.17-2.95,9.23-2.95,15.2s.98,10.95,2.95,15.15c1.93,4.2,4.32,6.3,7.15,6.3,1.83,0,3.48-.92,4.95-2.75h.1c.77-.97,1.45-2.15,2.05-3.55,1.14-2.39,1.96-5.06,2.45-8,.37-2.23,.55-4.61,.55-7.15,0-5.97-1-11.03-3-15.2m-.3,21.95c-.33,1.99-.85,3.8-1.55,5.45-.43,1.2-.93,2.12-1.5,2.75-1.13,1.53-2.35,2.3-3.65,2.3-1.97,0-3.68-1.68-5.15-5.05-1.4-3.3-2.1-7.28-2.1-11.95s.7-8.7,2.1-12c1.47-3.33,3.18-5,5.15-5,2.07,0,3.78,1.67,5.15,5,1.4,3.3,2.1,7.3,2.1,12,0,2.34-.18,4.5-.55,6.5m-1.55,5.45c.7-1.65,1.22-3.46,1.55-5.45,.37-2,.55-4.16,.55-6.5,0-4.7-.7-8.7-2.1-12-1.37-3.33-3.08-5-5.15-5s-3.68,1.67-5.15,5c-1.4,3.3-2.1,7.3-2.1,12s.7,8.65,2.1,11.95c1.47,3.37,3.18,5.05,5.15,5.05,1.3,0,2.52-.77,3.65-2.3,.57-.63,1.07-1.55,1.5-2.75m-54.3,5.95c-3.9-.7-8.77-1.05-14.6-1.05-6.57,.17-11.47,.2-14.7,.1-.2,2.93-.92,5.92-2.15,8.95,6.63,.6,12.25,.9,16.85,.9,6.13,.03,11.7-.37,16.7-1.2l-2.1-7.7m-20.2-152.9c-2.83,.43-5.43,1-7.8,1.7l-1.3,3.6c.53,12.93,.77,30.53,.7,52.8-.07,25.67,.03,43.25,.3,52.75-12.83-.17-22.43-.25-28.8-.25-11.1,0-20.7,.42-28.8,1.25,6.57,.57,16.05,.75,28.45,.55,12.97-.27,22.47-.18,28.5,.25,3.43,.27,6.18,2.97,8.25,8.1,.33-5.57,.5-12.78,.5-21.65-.07-11.77-.07-18.97,0-21.6,.27-17.2,.45-30.12,.55-38.75,.23-15.4,.05-28.32-.55-38.75m185.5,103.6c-.53,5.33-.57,10.75-.1,16.25l6.95-.05c6.4,2.23,8.63-3.15,6.7-16.15-6.03,.1-10.55,.08-13.55-.05m-145.3,22.3l.3-3c-3.9,.23-10.9,.2-21-.1-8.93-.23-15.92-.07-20.95,.5,5.67,1.73,12.57,2.67,20.7,2.8,4.63,.07,11.62,0,20.95-.2m75.85-28.05c-7.97,.17-14.35,.1-19.15-.2-.7,5.4-1.18,9.95-1.45,13.65,2.77,.73,6.18,1.15,10.25,1.25,2.27,.1,5.72,.15,10.35,.15-.1-3.3-.1-8.25,0-14.85m11.2-14c0,4.37,.23,8.23,.7,11.6,0,.77,.55,5.67,1.65,14.7,.73,5.9,.92,10.8,.55,14.7-1.27,.03-6.77,.03-16.5,0-6.7-.07-12.18,.2-16.45,.8,3.87,.7,8.68,1.15,14.45,1.35,3.27,.1,8.13,.2,14.6,.3,19.83,.43,31.77,.68,35.8,.75,13.5,.17,25.42,.08,35.75-.25l-.1-1.55c-7.7,.13-18.55-.05-32.55-.55-15.2-.53-26.03-.8-32.5-.8,1.07-3,1.83-5.65,2.3-7.95,4.6-.37,10.77-.38,18.5-.05,9.2,.37,15.37,.5,18.5,.4,.9,3.27,1.85,5.63,2.85,7.1,.23-4.3,1.53-11.35,3.9-21.15,2-8.97,2.55-18.27,1.65-27.9-17.73-2.9-35.43-3.97-53.1-3.2v11.7m5.75,11.25c-1.2-7.97-1.7-14.55-1.5-19.75,4.73,.43,12.47,.88,23.2,1.35,10.03,.33,17.8,.77,23.3,1.3,.73,12.83-.75,25.35-4.45,37.55-8.4-.4-14.68-.73-18.85-1-7.43-.2-13.75-.17-18.95,.1-.2-1.93-1.12-8.45-2.75-19.55m35.85,11.5c-.47,0-5.6-.12-15.4-.35-6.27-.17-11.47-.07-15.6,.3l1.85,1.6c4.43,.7,9.38,1.22,14.85,1.55,4,.2,8.92,.32,14.75,.35l-.45-3.45m-30.25-7.85v2c3.9,.6,9.43,1.08,16.6,1.45,7.8,.43,13.42,.87,16.85,1.3l2-2.8c-7.87-.67-13.75-1.12-17.65-1.35-7-.5-12.93-.7-17.8-.6m1.5-8.1c-1.53,.27-2.55,.97-3.05,2.1,4.07,.27,10.18,.72,18.35,1.35,7.2,.5,13.28,.75,18.25,.75l-.35-2.85c-4.2,0-9.08-.15-14.65-.45-2.3-.17-7.17-.48-14.6-.95-2.37,0-3.68,.02-3.95,.05m-2.25-6.95c2.27,.87,5.05,1.42,8.35,1.65,1.87,.07,4.7,.15,8.5,.25,1.07,.07,7.35,.58,18.85,1.55l.25-2.75c-2.53,.07-8.52-.23-17.95-.9-7.4-.47-13.4-.4-18,.2m13-29.7v-4.5c-1.33-.63-3.28-1.13-5.85-1.5-.17,1.83-.25,4.6-.25,8.3,2.67-.53,4.7-1.3,6.1-2.3m-80.35,31.8c-5.83,.37-10.65,1.82-14.45,4.35-3.77,2.3-6.83,5.12-9.2,8.45-2.6,3.8-3.98,7.7-4.15,11.7,.17,.5,.18,1.38,.05,2.65,.13,1.07,.65,1.52,1.55,1.35,.4-.83,1.55-3.42,3.45-7.75,1.37-3.2,2.67-5.68,3.9-7.45,1.93-3.2,4.68-5.8,8.25-7.8,3.33-1.97,6.95-2.98,10.85-3.05,12.33-.37,22.13,.6,29.4,2.9,1.53,.43,3.9,1.25,7.1,2.45,2.77,1,5.18,1.52,7.25,1.55-10.4-6.03-19.97-9.15-28.7-9.35-8.6-.17-13.7-.17-15.3,0m-27.3-55.7c-4.7-.37-7.55-.63-8.55-.8-2.73-.47-6.45-.7-11.15-.7,.03,3.67,0,9.22-.1,16.65,.1,6.37,.63,11.8,1.6,16.3,2.3,.23,5.92,.42,10.85,.55,4.8,.03,8.47,.23,11,.6,1.47,.53,3.18-.18,5.15-2.15,.47-3.83,.55-8.63,.25-14.4-.4-9.03-.6-13.88-.6-14.55-2.13-.73-4.95-1.23-8.45-1.5m-6.1,1.75c4.13,.2,7.65,.63,10.55,1.3,.83,7.6,1.18,16.18,1.05,25.75-8.97,.1-16.25,.02-21.85-.25-.2-3.5-.3-8.02-.3-13.55,0-7.33-.03-11.85-.1-13.55,2.3,.1,5.85,.2,10.65,.3m11.15-11.2c-.23-1.93-.5-4.57-.8-7.9-.47-4.8-1.47-8.53-3-11.2-5.2-4.23-11.52-6.93-18.95-8.1-6.67-1-13.6-.77-20.8,.7,8.03-.47,14.67-.32,19.9,.45,7.33,1.1,13.38,3.5,18.15,7.2,1.33,2.23,2.05,5.17,2.15,8.8,.07,2.03,.03,5.08-.1,9.15-2.7,.47-6.42,.78-11.15,.95-5.23,.17-8.92,.42-11.05,.75,3.63,.73,7.85,1.02,12.65,.85,2.9-.1,7.23-.65,13-1.65m107.75-154.4c-21.07-32.43-50.22-60.08-87.45-82.95-26.47-15.93-55.47-26.92-87-32.95-30.83-5.9-61.87-6.77-93.1-2.6-27.93,4.03-52.48,10.58-73.65,19.65-28.23,11.5-54,28.33-77.3,50.5-17.4,15.6-33.25,35.22-47.55,58.85-18.07,29.83-29.85,62.67-35.35,98.5-5.33,34.9-4.23,69.52,3.3,103.85l.35,2.35c-3.07,.2-5.83,.57-8.3,1.1,.87,7.7,3.63,16.1,8.3,25.2,.25,.43,2.45,4.15,6.6,11.15,.02,.04,.03,.08,.05,.1,1.92,3.25,4.25,7.2,7,11.85l2.2,10.5c8.97,1.93,18.73,2.83,29.3,2.7,5.46,.07,11.82-.65,19.1-2.15,.08,.01,.14,.01,.2,0,4.24-.79,10.52-2.16,18.85-4.1,.07-.02,.14-.04,.2-.05,18.3-4.6,33.82-7.7,46.55-9.3,17.13-2,32.83-1.87,47.1,.4,5.93,.7,12.35,2.17,19.25,4.4,4,1.28,9.05,3.11,15.15,5.5,1.07,.41,2.17,.85,3.3,1.3l23.9,7.7c.05,.12,.1,.23,.15,.35,.36,.97,.4,1.91,.1,2.8-.33,.97-.63,2.25-.9,3.85-13.4-2.93-22.2-4.92-26.4-5.95-4.63-1.23-8.15-2.05-10.55-2.45-3.29-.69-6.15-1.29-8.6-1.8-5.27-1.05-8.58-1.67-9.95-1.85-7.1-1.17-13.43-1.57-19-1.2-5.06,.35-10.01,.77-14.85,1.25-18.21,1.86-34.91,4.71-50.1,8.55-15.3,3.73-26.17,6-32.6,6.8-3.57,.45-7.04,.74-10.4,.85-8.23,.35-15.77-.29-22.6-1.9v4.6c8.24,.05,15.32,.04,21.25-.05,.42-.03,.92-.06,1.5-.1,4.02-.13,11.77-.08,23.25,.15,10.17,.13,18.4-.42,24.7-1.65,6.63-1.2,16.53-3.08,29.7-5.65,5.79-1.07,11.19-1.9,16.2-2.5,5.04-.55,9.69-.87,13.95-.95,5.56-.48,11.6-.36,18.1,.35,2.99,.35,6.08,.82,9.25,1.4,5.13,1.07,14.03,3.33,26.7,6.8,5.2,1.47,11.18,2.18,17.95,2.15h2.5c13.37-.03,24.14-.26,32.3-.7-9.93-8.43-16.77-13.05-20.5-13.85-1.6-.27-3.02-.53-4.25-.8,1.15-10.03,2.8-19.27,4.95-27.7,2.15-8.43,4.8-16.07,7.95-22.9,3.47-6.9,9.28-15.55,17.45-25.95,9.43-11.93,15.6-20.27,18.5-25l3-6.1c1.07-5.03,1.62-7.87,1.65-8.5,.2-3.3-1-5.6-3.6-6.9-3-1.4-7.2-2.15-12.6-2.25-5.4-.03-8.87,.42-10.4,1.35,1.8-2.33,4.33-4.63,7.6-6.9,9.97-6.13,19.12-11.05,27.45-14.75,10.27-4.53,20.18-7.58,29.75-9.15,.54-.05,1.07-.1,1.6-.15,10.04-.91,18.64-1.48,25.8-1.7,7.5-.23,14.75-.17,21.75,.2,6.93,.33,15.92,1.22,26.95,2.65,2.36,.23,4.62,.51,6.8,.85h0c.24,.03,.48,.07,.7,.1,7.02,1.1,13.1,2.74,18.25,4.9,7.34,3.28,13.59,7.67,18.75,13.15,.14,.16,.27,.31,.4,.45,.67,.7,3.12,4.15,7.35,10.35,.87,1.3,1.65,2.38,2.35,3.25-17-1.77-34-2.87-51-3.3-5.33-.13-9.12,.1-11.35,.7-1,.77-1.53,1.97-1.6,3.6,0,.97,.12,2.37,.35,4.2,.77,3.63,1.33,8.52,1.7,14.65,.53,7.4,.93,12.28,1.2,14.65l68.8,2.05,4.9,1.3c.1-7.9,.1-13.72,0-17.45-.2-6.5-1.05-11.97-2.55-16.4-1.2-1.17-3.18-2.35-5.95-3.55-4.27-6.9-8.22-12.67-11.85-17.3-3.63-4.7-8.6-8.85-14.9-12.45-6.1-3.48-14.03-6.5-23.8-9.05-.31-.08-.62-.17-.95-.25-28.73-4.97-56.3-5.6-82.7-1.9-.8,.18-1.6,.36-2.4,.55-4.94,1.2-9.81,2.61-14.6,4.25-.3,.1-.6,.2-.9,.3-5.04,1.73-9.99,3.68-14.85,5.85-.03,.04-.08,.08-.15,.1-9.58,4.34-18.8,9.55-27.65,15.65,0,.03-.03,.05-.05,.05-.02,.03-.04,.05-.05,.05,0,.02-.03,.04-.05,.05,0,0-.02,0-.05,0-2.27,1.6-4.52,3.25-6.75,4.95l-.2-.2c-1.27,1.07-2.57,2.15-3.9,3.25-.87,.7-1.72,1.45-2.55,2.25-.45,.06-.94,.13-1.45,.2,0,0-.03,0-.05,0-1.56,.17-3.33,.3-5.3,.4-4.27,.2-7.3,.5-9.1,.9-11.54,1.23-22.19,2.23-31.95,3-4.31,.34-8.44,.64-12.4,.9-9.03,.7-17.18,1.73-24.45,3.1-1.73,.27-3.4,.58-5,.95-4.56,.99-8.76,2.15-12.6,3.5-.04,.01-.09,.03-.15,.05-1.55,.55-3.05,1.14-4.5,1.75l-.45,.2c-.87,.37-1.72,.78-2.55,1.25-2.37,1.13-4.38,2.52-6.05,4.15-.17,.13-.3,.28-.4,.45-1.2,1.07-2.22,2.37-3.05,3.9-.4,.53-.8,1.07-1.2,1.6-5.13,6.6-12.02,11.47-20.65,14.6-1.63,.33-3.28,.68-4.95,1.05-2.57,.6-5.13,1.2-7.7,1.8l-16.1,2.9-4.9,.9-12.65,2.3c-2.2,.3-4.35,.62-6.45,.95-2.57,.37-5.1,.73-7.6,1.1-2.57,.33-5.12,.65-7.65,.95-10.37,1.3-20.78,2.33-31.25,3.1l-1.05-13.8c-.5-6.03-.75-10.67-.75-13.9,.07-5.27-.37-12.53-1.3-21.8l12.5-.1c-.5-10.1-.83-17.72-1-22.85-.37-9.1-.25-16.7,.35-22.8,.72-4.32,1.17-7.6,1.35-9.85,2.27-28.13,9.35-54.6,21.25-79.4,10.87-22.27,24.9-42.62,42.1-61.05,24.63-25.13,53.87-43.93,87.7-56.4,34.03-12.57,68.47-17.18,103.3-13.85,28,3.63,51.9,9.8,71.7,18.5,22.23,8.57,43.58,21.73,64.05,39.5,16.8,14.1,30.85,29.55,42.15,46.35,10.03,15.7,18.15,32.17,24.35,49.4,6.43,17.6,10.68,35.43,12.75,53.5,3.43,29.5,1.95,56.27-4.45,80.3l-.1-.35c0,.08,0,.15,0,.2,.15,1.2,.33,3.04,.55,5.5,.23,2.7,.53,4.85,.9,6.45,9.03,1.23,15.4,2.38,19.1,3.45l4.55,1.6c3.27,3.27,4.97,7.96,5.1,14.05,0,.19,0,.37,0,.55,.07,3.53-.17,8.87-.7,16,2.2-1.1,4.98-1.33,8.35-.7,1.83,.27,4.62,.8,8.35,1.6,2.03,5.07,2.7,10.25,2,15.55l1.6-1.5c.33-3.8,.27-8.63-.2-14.5-2.07-.87-4.1-1.63-6.1-2.3-1.78,.1-3.61,.02-5.5-.25-.6-.08-1.22-.18-1.85-.3-.07-3.23-.07-5.67,0-7.3,0-2.77,.27-5.2,.8-7.3,7.67-31.8,8.9-65.7,3.7-101.7-3.13-20.2-8.12-39.67-14.95-58.4-7.1-19.23-15.93-37.22-26.5-53.95m-76.35,190.8c-.53-.07-1.05-.1-1.55-.1h-10.1c-1.4-11.23-2.1-21.72-2.1-31.45,4.07,.07,9.88,.4,17.45,1,8.07,.53,13.83,.88,17.3,1.05,2.2,.23,7.85,.6,16.95,1.1,6.9,.43,12.5,1.07,16.8,1.9,.9,3.83,1.38,8.42,1.45,13.75,.07,3,.03,7.57-.1,13.7l-.35,.9-19.5-.65c-9.47-.77-21.55-1.17-36.25-1.2m-422.65,28.75c.58-.1,1.18-.2,1.8-.3,5.52-.9,12.92-1.8,22.2-2.7h.65c13.3-.97,26.55-2.35,39.75-4.15,4.5-.6,8.98-1.25,13.45-1.95l33.65-6.25c.29-.05,.58-.1,.85-.15,1.38-.23,2.71-.5,4-.8,4.8-1.07,8.32-1.9,10.55-2.5,.43-.1,.78-.2,1.05-.3,4.27-1.27,7.87-2.87,10.8-4.8,2.3-1.53,4.72-4.08,7.25-7.65,.87-1.22,1.64-2.34,2.3-3.35,.04-.03,.08-.07,.1-.1,.17-.23,.35-.45,.55-.65,1.67-2.3,2.78-3.78,3.35-4.45,.23-.3,.47-.53,.7-.7,1.67-1.67,3.67-3.08,6-4.25,.67-.3,1.3-.57,1.9-.8,1.04-.48,2.19-.95,3.45-1.4,1.25-.4,2.62-.78,4.1-1.15,.7-.2,1.45-.38,2.25-.55,12.47-2.43,28.22-4.63,47.25-6.6,27.08-2.68,42.53-4.23,46.35-4.65,.06,0,.11,0,.15,0,.38-.05,.63-.08,.75-.1,2.79-.27,5.33-.5,7.6-.7,.39,0,.77-.02,1.15-.05h0c2.58-.18,4.8-.3,6.65-.35,5.67-.03,10.77,.53,15.3,1.7,1.13,2.03,1.35,4.38,.65,7.05-.37,1.27-1.32,3.47-2.85,6.6-3.23,5.87-10.82,16.17-22.75,30.9-10.1,12.53-16.87,23.32-20.3,32.35-1.46,4.52-2.85,9.22-4.15,14.1-2.33,8.79-4.4,18.16-6.2,28.1-4.3-2.07-8.12-3.97-11.45-5.7-7.18-3.74-11.67-5.99-13.45-6.75-.04-.01-.09-.03-.15-.05-13.07-6.17-25.13-9.88-36.2-11.15-17.9-2.47-36.65-2.05-56.25,1.25l-1.6,.25c-.47,.07-.97,.15-1.5,.25h-.25c-.97,.27-2.15,.63-3.55,1.1-1.63,.53-3.28,1.07-4.95,1.6-1.7,.47-3.42,.93-5.15,1.4-7.94,2.32-15.34,4.26-22.2,5.8,0,.03-.02,.04-.05,.05-6.87,1.57-13.18,2.75-18.95,3.55-9.47,1.3-17.52,1.65-24.15,1.05l-.6-.1c-.3,0-.57-.03-.8-.1-9.65-1.21-18.35-8.43-26.1-21.65-4.66-7.9-8.98-17.97-12.95-30.2Z"/>
    <path class="cls-8" d="M243.9,626.08c7.93,2.27,8.37,1.62,1.3-1.95-9.67-4.6-23.62-11.95-41.85-22.05-18.97-11.17-26.9-14.88-23.8-11.15,18.93,14.33,40.38,26.05,64.35,35.15m200,1.35c.07,.27,2.1-.37,6.1-1.9,4.07-1.57,7.58-3.05,10.55-4.45,15.83-7.37,28.9-14.17,39.2-20.4,10.3-6.27,15.4-10.35,15.3-12.25-2-.37-5.02,.67-9.05,3.1-4.07,2.37-9.03,5.35-14.9,8.95-11.73,7.13-23.2,13.18-34.4,18.15-11.2,4.9-15.47,7.83-12.8,8.8m-151.9-47.05h-12.65v12.05h-.1c0,1.4,.03,2.85,.1,4.35v7c.1,8.67,.1,17.75,0,27.25,6.93,.17,17.47,.28,31.6,.35,.1-5.37,.03-9.82-.2-13.35-5.53,.17-11.73,.22-18.6,.15-.03-2.3-.05-6.63-.05-13-.07-1.6-.1-3.08-.1-4.45v-20.35m104.1-1.4c-7.63,0-13.48,2.68-17.55,8.05-4.8,5.67-7.02,12.45-6.65,20.35,.5,8.27,3.73,14.55,9.7,18.85,3.17,2.5,7.1,3.97,11.8,4.4,3.93,.43,8.18,.07,12.75-1.1,3.33-1.13,6.12-3.2,8.35-6.2,2.23-2.93,3.53-6.22,3.9-9.85l-11.6-.15c-.43,.9-1.17,2.23-2.2,4-1,1.4-2.12,2.3-3.35,2.7-2.4,.83-4.92,.83-7.55,0-2.67-.8-4.75-2.27-6.25-4.4-1.37-1.67-2.13-3.85-2.3-6.55-.13-1.43-.05-3.83,.25-7.2,.23-3,1.4-5.63,3.5-7.9,2.2-2.5,4.82-3.58,7.85-3.25,2.37-.33,4.48,.32,6.35,1.95,1.67,1.53,2.82,3.48,3.45,5.85l12.5-1.35c-.8-3.17-1.3-5.13-1.5-5.9-.83-2.27-1.9-4.02-3.2-5.25-4.83-4.9-10.92-7.25-18.25-7.05m-57,1.4c-2.6,.17-6.58,.32-11.95,.45-.07,16.73-.07,33.5,0,50.3h32.5c.03-2.83,.05-4.93,.05-6.3-.03-2.5-.15-4.63-.35-6.4-2.47-.17-5.73-.25-9.8-.25-5.43,.07-8.73,.07-9.9,0-.2-3.77-.25-10.05-.15-18.85,0-8.1-.13-14.42-.4-18.95m68.25-96.95c-1.53-2.93-3.6-5.5-6.2-7.7-2.7-2.13-5.68-3.6-8.95-4.4-5.2-1.57-10.45-2.13-15.75-1.7-5.53,.4-10.63,1.78-15.3,4.15-7.03,3.67-11.12,9.92-12.25,18.75-1.03,8.8,1.28,15.95,6.95,21.45,3.4,3.13,8.4,5.6,15,7.4,9.8,2.67,15.27,4.25,16.4,4.75,2.97,1.1,4.85,3.37,5.65,6.8,.77,3.27,.27,6.15-1.5,8.65-2,2.53-4.83,4.03-8.5,4.5-3.3,.5-6.57,.05-9.8-1.35-2.2-.87-3.8-2.55-4.8-5.05-.6-1.57-1.03-3.97-1.3-7.2l-18.85-.1c.1,3.97,.27,6.8,.5,8.5,.37,3.2,1.05,5.95,2.05,8.25,1.93,4,6.18,7.37,12.75,10.1,4.67,1.93,9.73,2.98,15.2,3.15,5.07,.2,10.17-.45,15.3-1.95,5.63-1.63,10.22-4.9,13.75-9.8,3.6-4.9,5.28-10.23,5.05-16,.67-4.77-.12-9.28-2.35-13.55-2.4-4.43-5.77-7.57-10.1-9.4-3.1-1.67-7.45-3-13.05-4-6.97-1.23-11.38-2.15-13.25-2.75-4.13-1.23-6.18-4.3-6.15-9.2,0-4.9,1.98-8.12,5.95-9.65,6.43-1.53,11.42-.7,14.95,2.5,1.33,1,2.22,2.5,2.65,4.5,.37,1.17,.73,2.93,1.1,5.3l17.25-.15c-.27-4.97-.4-7.48-.4-7.55-.27-2.9-.93-5.32-2-7.25m-129.05,3.95c2.33-1.1,4.95-1.32,7.85-.65,2.03,.43,4.55,1.43,7.55,3,2.03,5.23,2.4,9.68,1.1,13.35-1.77,4.57-5.22,9.23-10.35,14-3.4,3.2-8.65,7.9-15.75,14.1-6.2,5.6-11.22,10.52-15.05,14.75-.53,2.13-.8,4.92-.8,8.35v8.3c7.67,.13,16.5,.2,26.5,.2,4,0,8.22-.03,12.65-.1,7.07,0,14.68-.07,22.85-.2v-16.4c-3.9-.03-9.78-.05-17.65-.05h-5.2c-5.33,0-9.5-.03-12.5-.1,2.6-3.27,7.08-7.65,13.45-13.15,6.33-5.5,10.8-9.93,13.4-13.3,3.27-4.33,5.5-9.33,6.7-15,1-5.47,.93-10.98-.2-16.55-1.07-4.6-3.65-8.5-7.75-11.7-3.87-3.03-8.27-4.88-13.2-5.55-5.07-1.07-10.08-1.17-15.05-.3-5.2,.9-9.75,2.83-13.65,5.8-3.3,2.47-5.83,5.72-7.6,9.75-1.7,3.8-2.47,7.83-2.3,12.1,6.57,.13,12.43,.12,17.6-.05,1.03-3.03,1.87-5.15,2.5-6.35,1.23-2.17,2.87-3.58,4.9-4.25m-59.1-1.9c.13-4.4,.17-9.3,.1-14.7-6.93,.1-27.62,.15-62.05,.15v18l38.05-.1c-4.5,7.27-10.7,16.38-18.6,27.35-10.4,14.53-16.75,23.52-19.05,26.95-.8,2.47-1.2,5.65-1.2,9.55,0,6.03-.03,9.27-.1,9.7,13.97,.37,34.98,.43,63.05,.2,.1-5.7,.1-11.37,0-17-17.07,.07-29.88,.07-38.45,0,2.5-5.07,5.97-11.1,10.4-18.1,5.07-7.7,8.8-13.53,11.2-17.5,.53-.73,3.25-4.83,8.15-12.3,3.3-5.07,6.13-9.13,8.5-12.2m-113.05,23.25v-9.8c0-4,.05-7.33,.15-10,7.47,.23,18.65,.32,33.55,.25,.9-6.6,.9-12.68,0-18.25-24.23,0-42.47,.03-54.7,.1-.17,20.3-.2,50.75-.1,91.35,20.6,.43,39.13,.4,55.6-.1-.03-6.3,.03-11.72,.2-16.25-4.67-.17-10.48-.25-17.45-.25h-17.4l.15-20.45,29.75-.1c.17-4.9,.2-10.4,.1-16.5-6.63,.1-16.58,.1-29.85,0m428.1,53.85c.1-10.73,.1-25.98,0-45.75-.07-21.07-.07-36.3,0-45.7-2.97-.13-9.62-.2-19.95-.2-.07,20.37-.1,50.88-.1,91.55,8.93,.13,15.62,.17,20.05,.1m-36.05-91.65c-8.73,0-15.28,.03-19.65,.1,.07,8.17,.03,20.33-.1,36.5-6.97,.37-12.2,.57-15.7,.6-6.13,.07-11.37-.32-15.7-1.15,.27-6,.27-18.02,0-36.05-8.67,0-15.17,.03-19.5,.1l-.15,91.45c5.83,.2,12.43,.23,19.8,.1l.1-37c6.83-.23,17.13-.35,30.9-.35,.23,6.2,.32,18.58,.25,37.15,10.33,.13,16.98,.1,19.95-.1,.03-40.57-.03-71.02-.2-91.35m109.85,11.15c-5.6-6.9-14.6-10.53-27-10.9-16.03-.1-26.37-.05-31,.15,.1,10.17,.05,40.55-.15,91.15,8.87,.13,15.52,.17,19.95,.1l.05-31.5c7.33-.2,13.15-.77,17.45-1.7,6.37-1.37,11.6-3.82,15.7-7.35,5.83-4.67,9.28-10.98,10.35-18.95,1.07-8.17-.72-15.17-5.35-21m-38.2,6.85c2.33,.17,5.95,.17,10.85,0,4.27,.17,7.6,1.23,10,3.2,2.3,2.33,3.42,5.25,3.35,8.75-.03,3.47-1.27,6.35-3.7,8.65-2.17,2.4-5.38,3.82-9.65,4.25-4.93,.27-8.55,.48-10.85,.65v-25.5M167.85,312.98v-4.4c-2.07,.33-5.28,1.27-9.65,2.8-4.1,1.6-7.35,2.52-9.75,2.75,0,3.97,.1,9.7,.3,17.2v2.75c2.63-.47,5.78-1.18,9.45-2.15,2.13-.6,5.3-1.43,9.5-2.5,0-3.37,.02-6.4,.05-9.1l.1-7.35m6.25-6.4c-.73,2.67-1.1,6.13-1.1,10.4,0,5.9-.07,9.35-.2,10.35,2.97-.4,6.98-1.32,12.05-2.75,5.6-1.57,9.58-2.6,11.95-3.1,.47-4.83,.78-12.07,.95-21.7-2.83,.47-6.82,1.57-11.95,3.3-5.33,1.9-9.23,3.07-11.7,3.5m28.1-8.8c0,2.13-.12,5.63-.35,10.5-.17,4.53-.25,8.08-.25,10.65,2.53-.27,5.93-.92,10.2-1.95,5.17-1.2,8.62-1.93,10.35-2.2,.27-3.43,.38-7.48,.35-12.15,0-.3-.12-4.3-.35-12-2.37,.97-5.68,2.17-9.95,3.6-4.67,1.53-8,2.72-10,3.55m52.7-16.2c-13.63,3.57-23.17,6.23-28.6,8,.23,10.1,.35,17.72,.35,22.85,3.47-.4,7.95-1.22,13.45-2.45,7.27-1.73,11.77-2.77,13.5-3.1,.17-2.43,.3-6.62,.4-12.55,.1-5.47,.4-9.72,.9-12.75m27.4-8.25c-6.03,1.3-14.05,3.75-24.05,7.35,.17,8.07,.47,16.22,.9,24.45,1.47-.37,5.33-1.4,11.6-3.1,4.7-1.37,8.55-2.28,11.55-2.75,.5-3.3,.6-7.6,.3-12.9-.2-6.7-.3-11.05-.3-13.05m-61.6,4.85l-.25,8.45c3.77-.97,8.32-2.25,13.65-3.85,3-.93,7.52-2.35,13.55-4.25l.1-10.35c-3.03,1.23-7.53,2.88-13.5,4.95-6.07,2.13-10.58,3.82-13.55,5.05m-3.55,9.5l.1-7.65c-8.23,2.97-23.02,8.85-44.35,17.65l-.55,4.35c6.4-1.3,13.93-3.5,22.6-6.6,4.97-1.63,12.37-4.22,22.2-7.75m30.2-24c-.07-3.53,0-7.47,.2-11.8-11.53-.03-20.18-.05-25.95-.05-10.27,0-18.88,.1-25.85,.3,1.87,1.8,4.87,5,9,9.6,.73,0,1.53-.28,2.4-.85,1-.67,1.75-1.12,2.25-1.35,3.83,3.93,5.6,7.97,5.3,12.1l-7.25-2.1-3.65,4.25c-.07-.1-1.33-2.2-3.8-6.3-1.6-2.43-3.1-4.27-4.5-5.5-1.43-.63-3.88-1.25-7.35-1.85-3.2-.47-5.57-1.1-7.1-1.9-.9-.43-2.65-1.5-5.25-3.2-2.1-1.43-3.9-2.32-5.4-2.65-2.87-.33-6.25-.5-10.15-.5-4.5,0-7.87-.02-10.1-.05-2.17,8.13-2.58,15.53-1.25,22.2l1.55-5.45c6.7,.97,11.88,1.87,15.55,2.7,5.73,1.37,10.75,3.05,15.05,5.05,1,.33,2.5,2,4.5,5,1.6,2.33,3.4,3.22,5.4,2.65,3.63-.87,8.45-2.53,14.45-5,6.73-2.83,11.52-4.65,14.35-5.45,3.37-.83,7.97-2.47,13.8-4.9,6.27-2.5,10.87-4.15,13.8-4.95m100.65-163.35c.1,14.4,.43,36.1,1,65.1,13.83-.17,34.55-.15,62.15,.05l.3-4.8,2.65,4.5c8.17,.97,15.45,1.28,21.85,.95-1.1-2.4-3.42-6.52-6.95-12.35l3.5-7.15-6.3,.8c-1.93-3.67-3.58-7.32-4.95-10.95l-5.5,.15-9.85,7.85c-.57-3.17-.92-5.57-1.05-7.2-.63-3,.07-6,2.1-9,1.23-1.97,3.37-4.4,6.4-7.3,1.5,0,2.83,.62,4,1.85,.77,.77,1.73,2.03,2.9,3.8,.2-3.77-.78-8.17-2.95-13.2-2.73-5.53-4.58-9.72-5.55-12.55-4.27-.33-9.57-.5-15.9-.5-7.1,.1-12.42,.1-15.95,0l4.5,9.05c-2.33,2.03-5.3,2.37-8.9,1-3.13-1.3-5.68-3.33-7.65-6.1l5.25-1.25,.7-2.7c-12.4-.2-21-.22-25.8-.05m50.45-27.7c1.93,2.5,4.52,6.42,7.75,11.75,3.3,5.3,5.87,9.2,7.7,11.7,1.9,.3,4.18,.45,6.85,.45h6.9c-.17-3.07-.25-6.23-.25-9.5,3.73,.17,8.08,.68,13.05,1.55l1.15-4.9c1.77,1.7,2.97,2.82,3.6,3.35,1.43,1.2,2.83,2.08,4.2,2.65-1.3-2.83-3.22-5.02-5.75-6.55-7.83-5.13-18.3-10.32-31.4-15.55-5.63-2.3-9.43-3.78-11.4-4.45-4.33-1.6-8.23-2.75-11.7-3.45,.63,1.93,2.02,4.18,4.15,6.75,2.9,3.23,4.62,5.3,5.15,6.2m-146.3,112.85c-6.73,1.23-12.93,3.22-18.6,5.95-5.2,4.37-9.07,8.88-11.6,13.55-.67,3.13-1.2,5.35-1.6,6.65-.7,2.4-1.7,4.47-3,6.2l-3.8,.15c-.43-2.7-1.2-4.93-2.3-6.7-1.37-2.2-3.23-3.5-5.6-3.9-3.87-.53-6.82-.83-8.85-.9-3.43-.1-6.3,.32-8.6,1.25-4.77,6.97-7.3,16-7.6,27.1,.6,4.07,.9,6.22,.9,6.45,.63,2.47,1.87,4.18,3.7,5.15,2.07-1.37,4.12-3.45,6.15-6.25,2.1-3.27,3.73-5.67,4.9-7.2,2.23,1.27,3.7,2.73,4.4,4.4,.97,1.67,.8,3.67-.5,6-1.87,3.63-2.87,5.57-3,5.8,4.8-.07,13.4-.1,25.8-.1,10.83,.07,19.38-.02,25.65-.25,.87-25.33,2.05-46.45,3.55-63.35m-25.4,54.45c-2.8,.07-5.65-.6-8.55-2-2.03-.97-4.53-2.53-7.5-4.7,3.07-2.47,6.7-3.88,10.9-4.25,1.63,2.3,2.75,4,3.35,5.1,1.07,2.1,1.67,4.05,1.8,5.85m39.45-70.75c-2.17-.2-4.2,.4-6.1,1.8-1.87,1.37-3.02,3.17-3.45,5.4-1.7,21.9-3.12,46.08-4.25,72.55,3.73,0,19.23,.02,46.5,.05,18.7,0,34.17-.15,46.4-.45-.07-17.77-.05-44.38,.05-79.85-10.73-.3-20.65-.15-29.75,.45-25.6,.03-42.07,.05-49.4,.05m5.05-64.8l.7,4.8c4.93-.6,8.57-.92,10.9-.95,.77,1.63,1.73,4.17,2.9,7.6,1.23,3,2.7,5.2,4.4,6.6,3.1,3.17,5.27,6.03,6.5,8.6,1.83,3.73,2,7.2,.5,10.4-.53,1.5-1.67,2.77-3.4,3.8-1,.47-2.62,1.05-4.85,1.75-2.67-1-4.68-1.67-6.05-2-2.33-.67-4.42-.85-6.25-.55-1.27,.23-2.38,1.03-3.35,2.4-1.03,1.63-1.83,2.8-2.4,3.5l4.3-.8c-.1,1.43-.15,3.45-.15,6.05,.53,.9,1.47,1.45,2.8,1.65,.77,.17,1.92,.35,3.45,.55-2.5,1.2-4.12,2.15-4.85,2.85-1.57,1.33-2.27,2.98-2.1,4.95,36.7-.1,60.3-.23,70.8-.4-.07-14.43-.1-25.23-.1-32.4,0-12.67,.12-23.52,.35-32.55l-2.1-.45,1.45-4.3-2.15-.9,.25,6.1c-1.4-.6-3.2-.83-5.4-.7-2.47,.37-4.33,.6-5.6,.7-1.57,4.67-3.87,9.18-6.9,13.55-1.67-2-3.97-3.65-6.9-4.95-.93-.43-3.58-1.35-7.95-2.75l.95-6-12.35,.35-3.3,7.6c-2.13,0-5.2-1.3-9.2-3.9-3.6-2.37-6.73-3.23-9.4-2.6-1.17,.37-4.02,.55-8.55,.55-3.5,0-6.1,.8-7.8,2.4-.73-2.07-2.07-3.52-4-4.35-2.03-.83-4.02-.8-5.95,.1-4.13,2.47-7.23,4.8-9.3,7-3.07,3.2-4.72,6.6-4.95,10.2,.2,1.77,.43,4.47,.7,8.1,.67,3.1,2,5.37,4,6.8,2.3,1.27,4.78,1.32,7.45,.15,2.53-1.17,4.33-2.95,5.4-5.35,.7-1.33,1.13-3.15,1.3-5.45,.37-3.73,.58-5.68,.65-5.85,1.43-1.07,3.65-2.7,6.65-4.9,2.33-2.07,3.8-4.32,4.4-6.75,.1,0,1.6-.08,4.5-.25m25.7,50.7c1.9,.33,4.62,.95,8.15,1.85-3.6,.2-6.32,.3-8.15,.3-3.23,0-5.87-.5-7.9-1.5,2.07-.97,4.7-1.18,7.9-.65m-31.7-81.5c2.07,.9,4.6,1.4,7.6,1.5,1.7,0,4.3-.08,7.8-.25l.1,3c-1.6,1.23-3.92,3.18-6.95,5.85l.65,5.05c-5.3,1.17-11,2.85-17.1,5.05-.8-.3-3.22-1.72-7.25-4.25-2.87-1.9-5.43-2.67-7.7-2.3,3.5,4.9,7.13,8.32,10.9,10.25,3.23,.37,7.63,.43,13.2,.2,6.53-.37,10.95-.47,13.25-.3-1.93-5.53-2.9-9.78-2.9-12.75,3.37,0,8.37-.4,15-1.2l4.4,4.95-4.95,.95c.93,2.23,2.85,3.75,5.75,4.55l-2.15,3.7c2.37,.1,5.28,.13,8.75,.1,1.9-.07,4.77-.17,8.6-.3,1-3,1.45-6.77,1.35-11.3-2.83-3.57-5.22-6.32-7.15-8.25-2.8-2.83-5.63-5.02-8.5-6.55-1.33-.7-1.73-1.75-1.2-3.15,.97-1.67,1.6-2.87,1.9-3.6,1.93-.07,8-.73,18.2-2,7.43-.97,13.55-1.12,18.35-.45,2.6,.47,6.55,.93,11.85,1.4,5.33,.43,9.28,.92,11.85,1.45-.63,2.83-.95,4.35-.95,4.55-.3,1.83-.25,3.42,.15,4.75,.73,1.07,1.92,2.62,3.55,4.65,1.6,1.97,2.75,3.52,3.45,4.65-3.87,3.37-9.47,6.75-16.8,10.15l-.7,2.75c4.13,.7,9.53,.92,16.2,.65,8.57-.37,14-.5,16.3-.4,10.3,.53,19.87,.6,28.7,.2-1.97-4.2-4.75-8.87-8.35-14-4.37-5.77-7.6-10.13-9.7-13.1-2.13-2.6-3.72-4.55-4.75-5.85-1.93-2.3-3.88-3.83-5.85-4.6-9.6-2.43-20.27-3.78-32-4.05-9.03-.27-19.88,.13-32.55,1.2-14.33,1.5-30.92,6.37-49.75,14.6l-.6,2.5m211.4,88.3h-2.45l-.25,4.85c1.37,2.5,3.32,4.27,5.85,5.3,2.33,1.07,4.95,1.37,7.85,.9,.6,2.37-.25,3.9-2.55,4.6-1.53,.6-3.57,.73-6.1,.4-1.83-.9-4.25-2.53-7.25-4.9-3.27-2.4-5.67-4.03-7.2-4.9-7.6,1.03-13.33,1.57-17.2,1.6-.9,2-2.23,5.1-4,9.3-1.63,3.53-3.4,6.35-5.3,8.45-1.27,.57-3.72,.97-7.35,1.2-3.17,.23-5.58,.85-7.25,1.85-3.37-2.57-6.12-5.7-8.25-9.4-2.23-3.57-3.73-7.47-4.5-11.7-7.97-.33-18.23-.62-30.8-.85-17.3-.23-27.53-.38-30.7-.45-.2,17.93-.15,44.87,.15,80.8,3.9-.27,12.2-.35,24.9-.25,10.37,.17,18.65-.15,24.85-.95-.97-4.3-1.53-7.53-1.7-9.7-.2-3.73,.33-6.93,1.6-9.6,1.5-1.7,3.58-3.47,6.25-5.3,1.5-1,3.77-2.5,6.8-4.5,0-2.9,.88-6,2.65-9.3,.7-1.37,2.45-4.08,5.25-8.15,3.4-3.1,8.23-5.73,14.5-7.9,3.6-1.2,8.87-2.95,15.8-5.25,4.8-1.97,9.83-2.1,15.1-.4,2.7,2.37,8.48,7.45,17.35,15.25,.9,.7,2.12,2.08,3.65,4.15,1.5,1.53,3.08,2.12,4.75,1.75,2.13-.07,4.08-1.18,5.85-3.35,1-1.3,2.42-3.22,4.25-5.75,2.47-.27,6.48,.35,12.05,1.85,5.07,1.3,9.07,1.62,12,.95-.9-7.27-2.42-13.33-4.55-18.2-1.03-.17-2.52,.15-4.45,.95-1.8,.77-3.22,.98-4.25,.65-1.9-1.77-3.2-3.9-3.9-6.4-.77-2.53-.82-5.05-.15-7.55,1.07-4.33,.5-7.68-1.7-10.05,1.93-.2,4.38-.07,7.35,.4,1.57,.23,3.98,.62,7.25,1.15-1.7-1.4-4.13-3.07-7.3-5-4.1-2.33-6.67-3.88-7.7-4.65-1.6,1.67-2.58,2.77-2.95,3.3-.97,1.33-1.38,2.7-1.25,4.1-.2,2.5-.35,7.57-.45,15.2-.17,6.43-.38,11.5-.65,15.2-1.23-1.5-2.65-3.97-4.25-7.4-1.57-3.57-2.88-6.1-3.95-7.6-1.43-2.27-3.93-4.82-7.5-7.65-4.2-3.23-6.93-5.58-8.2-7.05m-5.55-34.45c-1.3-2.07-3.2-5.42-5.7-10.05-2.23-4.47-4.05-7.85-5.45-10.15-2.43,.7-4.87,2.08-7.3,4.15,2.67,5.4,3.85,10.15,3.55,14.25-3.43,1.5-6.05,2.45-7.85,2.85-3.27,.73-5.75,0-7.45-2.2-4.07-5.57-6.78-9.58-8.15-12.05-2.67-4.8-4.13-9.42-4.4-13.85h-12.25c1.6,4.63,3.78,10.28,6.55,16.95,1.6,3.67,3.97,9.22,7.1,16.65,5.77,.63,8.75,.95,8.95,.95,3.43,.37,6.4,.43,8.9,.2,1.23-.43,3.4-1.43,6.5-3,2.67-1.33,4.88-2.17,6.65-2.5,2.3-.53,5.75-1.27,10.35-2.2m90.5,461.25c-10.07-.53-17.6-.53-22.6,0-1.57,.6-3.33,1.75-5.3,3.45-2.83,2.57-4.45,3.98-4.85,4.25-24,18.73-50.28,33.42-78.85,44.05-28.87,10.83-58.32,16.87-88.35,18.1-9.53,.27-16.67,.35-21.4,.25-8.03-.03-15.23-.35-21.6-.95-23.7-2.2-46.88-7.1-69.55-14.7-22.7-7.63-44.07-17.72-64.1-30.25-10.3-6.93-15.83-10.68-16.6-11.25-6.2-4.43-11.33-8.65-15.4-12.65-6.63-.83-14.22-.9-22.75-.2l.25,3.45c25.67,23.27,52.85,41.18,81.55,53.75,29.47,14.2,62.52,23.28,99.15,27.25,8.33,1.17,17.95,1.83,28.85,2,4.37,.03,14.05-.13,29.05-.5,22.2-1.77,43.58-5.53,64.15-11.3,21.63-6.1,41.87-14.2,60.7-24.3,24.37-12.6,45.58-27.22,63.65-43.85,2-1.67,3.33-3.87,4-6.6m-13.8-387.6l-.8,7c4.27,1.77,7.85,4.33,10.75,7.7,3.13,3.53,5.03,7.47,5.7,11.8,.93,3.4,2.5,8.4,4.7,15,1.7,6,2.88,11.13,3.55,15.4-8.57,1.43-15.22,2.57-19.95,3.4-1-2.3-2.45-6.35-4.35-12.15-1.7-5.23-3.28-9.23-4.75-12-1.7-2.97-3.43-6.63-5.2-11-1.93-5.07-3.35-8.87-4.25-11.4l-2.25,4.85c2.3,5,4.95,12.63,7.95,22.9l3.6,1.7c.73,9.93,4.02,18.03,9.85,24.3l9.05-.25c-.1,2.13-.1,5.37,0,9.7,0,3.77-.27,6.92-.8,9.45-.53,1.13-1.62,2.8-3.25,5-1.6,2.1-2.67,3.8-3.2,5.1-1.07,2.6-2.07,7.02-3,13.25,2.77,1.2,4.75,2.38,5.95,3.55,1.5,4.43,2.35,9.9,2.55,16.4,.1,3.73,.1,9.55,0,17.45,.8-2.37,1.12-5.77,.95-10.2-.23-5.2-.17-8.73,.2-10.6l7.45,1.15c.17,.05,.34,.1,.5,.15l1.35,.4v-.05c1.6-11.3,2.58-19.65,2.95-25.05,.8-9.37,1.1-17.45,.9-24.25-.33-9.67-.88-17.82-1.65-24.45-.93-8.77-2.38-16.75-4.35-23.95-1.3-4.8-2.17-7.73-2.6-8.8-1.27-3.17-3.03-5.62-5.3-7.35-5.93-4.43-10.02-9.15-12.25-14.15m-148.75,64.4c-.03-.27-.05-.55-.05-.85-.17-6.6-.25-10.85-.25-12.75-5.87-.17-14.12-.18-24.75-.05-11.53,.03-19.8,.05-24.8,.05,.03,5.2,.03,13.62,0,25.25-.07,9.03-.05,17.15,.05,24.35l.2,.2c2.23-1.7,4.48-3.35,6.75-4.95,.03,0,.05,0,.05,0,.02-.01,.04-.03,.05-.05,.01,0,.03-.02,.05-.05,.02,0,.04-.02,.05-.05,8.85-6.1,18.07-11.31,27.65-15.65,.07-.02,.12-.06,.15-.1,4.86-2.17,9.81-4.12,14.85-5.85v-2.6s.08-.02,.15-.05c0-1.97-.05-4.15-.15-6.55v-.3m-202.4,60.8c-7.57,1.23-15.53,3.53-23.9,6.9,.1,6.77,.1,13.58,0,20.45l16.1-2.9c2.57-.6,5.13-1.2,7.7-1.8,.23-5.9,.27-13.45,.1-22.65m-26.25-187.8c2.83-4.97,5.05-9.33,6.65-13.1-11.5,14.57-19.93,26.87-25.3,36.9-17.17,29.3-27.02,63.4-29.55,102.3l-6.75-5.85c.1,2.17-.1,5.45-.6,9.85-.5,4.27-.72,7.5-.65,9.7,.1,13.37,1.08,25.1,2.95,35.2,6.7-.17,12.1,.32,16.2,1.45,.17,6.3,.25,13.92,.25,22.85,0,4.97-.03,12.32-.1,22.05,2.53-.3,5.08-.62,7.65-.95-.13-10.1-.2-17.72-.2-22.85,0-9.33,.3-17.25,.9-23.75,5.47-1.4,9.93-2.67,13.4-3.8,4.87-1.6,9.22-3.35,13.05-5.25v-3.85c-6.57,2.47-11.5,4.28-14.8,5.45-5.9,2.2-11.03,3.12-15.4,2.75-.1-5.37-.22-17.4-.35-36.1l-7.7,.25-.05-1.95h8c-.03-4.53-.43-10.55-1.2-18.05l-8.15-1.75,7.35-1.45c3.43-7.13,7.32-12.18,11.65-15.15l-2.75-3.6c.7,0,1.98-.08,3.85-.25l-.4,4.15c1.6,1.87,2.73,4.35,3.4,7.45,.03,.4,.38,3.17,1.05,8.3,6.77-.13,12.4-.38,16.9-.75-.7-.87-2.47-2.8-5.3-5.8-2.23-2.23-3.88-4.22-4.95-5.95-.77-1.77-1.23-4.03-1.4-6.8-.13-3.27-.28-5.67-.45-7.2-1.6-2.13-2.73-4.82-3.4-8.05-.2-1.37-.47-4.28-.8-8.75,0-1.53-.5-4.48-1.5-8.85-.77-3.7-1.07-6.68-.9-8.95,1.07-12.43,5.1-24.8,12.1-37.1,3.27-5.67,5.7-9.92,7.3-12.75m-45.95,170.7c0-6.43,.03-11.25,.1-14.45,0-5.73,.1-10.6,.3-14.6l2.75,2.25c.33,3.7,.42,8.08,.25,13.15,0,1-.18,5.43-.55,13.3l-2.85,.35m7.55-30.25l2.8,.3c.8,8.87,.83,18.38,.1,28.55l-3,.35c-.1-6.5-.07-16.23,.1-29.2m8.65,33.35c-.17,1.53-.87,2.33-2.1,2.4-1.37,.07-1.98-.68-1.85-2.25,.23-1.5,.97-2.25,2.2-2.25,1.37-.1,1.95,.6,1.75,2.1m8.1,45.5c2.1-.33,4.25-.65,6.45-.95l12.65-2.3v-21.25l-19.1,5.3v19.2m52.75-33.3c-.37,8.4-.37,16.2,0,23.4,8.63-3.13,15.52-8,20.65-14.6,.4-.53,.8-1.07,1.2-1.6-.23-5.67-.37-9.88-.4-12.65-3.17,.47-6.78,1.23-10.85,2.3-.1,.07-3.63,1.12-10.6,3.15m51.6-8.05l.5-4.6c-11.6,2.67-20.67,4.68-27.2,6.05v9.9c.1-.17,.23-.32,.4-.45,1.67-1.63,3.68-3.02,6.05-4.15,.83-.47,1.68-.88,2.55-1.25l.45-.2c1.45-.61,2.95-1.2,4.5-1.75,.06-.02,.11-.04,.15-.05,3.84-1.35,8.04-2.51,12.6-3.5m42.85-45.85c9.67,1.17,19.98,3.03,30.95,5.6v32.3c1.8-.4,4.83-.7,9.1-.9,1.97-.1,3.74-.23,5.3-.4,.02,0,.04,0,.05,0,.51-.07,1-.14,1.45-.2,.83-.8,1.68-1.55,2.55-2.25-.17-23.3-.22-40.83-.15-52.6-8.8,.1-24.28,.08-46.45-.05-19.73-.23-35.27-.23-46.6,0,.07,2.77,.03,11.23-.1,25.4,14.47-4.77,25.97-7.92,34.5-9.45,3.53,1.43,6.67,2.28,9.4,2.55m-13.55,34.8c-1.5,0-4.32,.38-8.45,1.15-4.73,.9-10,2.25-15.8,4.05l-.05,4.9c7.27-1.37,15.42-2.4,24.45-3.1,0-3.07-.05-5.4-.15-7M541.75,91.28c24.03,21.2,43.75,46.97,59.15,77.3,14.7,29.07,24.38,60.12,29.05,93.15,5.53,45.87,2.43,85.38-9.3,118.55,2,.67,4.03,1.43,6.1,2.3,.47,5.87,.53,10.7,.2,14.5l-1.6,1.5-2.05,9.85,5.05-.45-.2,3.75c7.93-20.43,13.58-41.1,16.95-62,3.53-21.7,4.47-43.07,2.8-64.1-1.13-29.23-6.53-57.83-16.2-85.8-9.67-28.03-23.07-53.85-40.2-77.45-14.53-19.7-31.8-37.92-51.8-54.65-27-22.6-57.52-39.8-91.55-51.6C414.12,4.4,379.47-.93,344.2,.13c-8.77-.27-18.52,.27-29.25,1.6-7.1,.73-16.83,2.15-29.2,4.25-24.33,4.77-47.82,12.47-70.45,23.1-22.77,10.67-43.72,23.82-62.85,39.45-23.5,19.2-43.67,41.52-60.5,66.95-16.93,25.73-29.38,53.08-37.35,82.05-6.2,21.27-9.88,43.47-11.05,66.6-1.2,22.2-.08,44.67,3.35,67.4,2.3,12.07,4.9,22.75,7.8,32.05,3.5,11.2,8.25,22.08,14.25,32.65,1.37,.6,3.72,1.8,7.05,3.6,2.93,1.57,5.32,2.67,7.15,3.3,3.53,1.17,7.22,2.18,11.05,3.05h.25c-10.5-15.77-17.45-28.47-20.85-38.1-2.4-6.37-5.23-15.45-8.5-27.25-1.97-8.1-3.43-17.32-4.4-27.65-.5-6.13-1.02-15.43-1.55-27.9,.07-27.1,2.77-51.68,8.1-73.75,5.83-25.13,16.77-51.4,32.8-78.8,12.27-19.4,27.47-38.2,45.6-56.4,33.57-31.4,69.45-53.1,107.65-65.1,31.93-10.73,66.73-15.6,104.4-14.6,34.17,1.13,64.93,7.1,92.3,17.9,33.27,11.97,63.85,30.88,91.75,56.75Z"/>
    <path class="cls-7" d="M580.7,488.93c-4.9,.17-8.52,.17-10.85,0v25.5c2.3-.17,5.92-.38,10.85-.65,4.27-.43,7.48-1.85,9.65-4.25,2.43-2.3,3.67-5.18,3.7-8.65,.07-3.5-1.05-6.42-3.35-8.75-2.4-1.97-5.73-3.03-10-3.2m-28.85-128.75c-.2,5.2,.3,11.78,1.5,19.75,1.63,11.1,2.55,17.62,2.75,19.55,5.2-.27,11.52-.3,18.95-.1,4.17,.27,10.45,.6,18.85,1,3.7-12.2,5.18-24.72,4.45-37.55-5.5-.53-13.27-.97-23.3-1.3-10.73-.47-18.47-.92-23.2-1.35m14.7,10c-3.3-.23-6.08-.78-8.35-1.65,4.6-.6,10.6-.67,18-.2,9.43,.67,15.42,.97,17.95,.9l-.25,2.75c-11.5-.97-17.78-1.48-18.85-1.55-3.8-.1-6.63-.18-8.5-.25m-9.15,7.4c.5-1.13,1.52-1.83,3.05-2.1,.27-.03,1.58-.05,3.95-.05,7.43,.47,12.3,.78,14.6,.95,5.57,.3,10.45,.45,14.65,.45l.35,2.85c-4.97,0-11.05-.25-18.25-.75-8.17-.63-14.28-1.08-18.35-1.35m1.55,8v-2c4.87-.1,10.8,.1,17.8,.6,3.9,.23,9.78,.68,17.65,1.35l-2,2.8c-3.43-.43-9.05-.87-16.85-1.3-7.17-.37-12.7-.85-16.6-1.45m14.85,5.5c9.8,.23,14.93,.35,15.4,.35l.45,3.45c-5.83-.03-10.75-.15-14.75-.35-5.47-.33-10.42-.85-14.85-1.55l-1.85-1.6c4.13-.37,9.33-.47,15.6-.3M305.1,156.93c-3.53-.9-6.25-1.52-8.15-1.85-3.2-.53-5.83-.32-7.9,.65,2.03,1,4.67,1.5,7.9,1.5,1.83,0,4.55-.1,8.15-.3m-166.55,157.75c1.23-.07,1.93-.87,2.1-2.4,.2-1.5-.38-2.2-1.75-2.1-1.23,0-1.97,.75-2.2,2.25-.13,1.57,.48,2.32,1.85,2.25m-3.75-35.45l-2.8-.3c-.17,12.97-.2,22.7-.1,29.2l3-.35c.73-10.17,.7-19.68-.1-28.55m-10.25,15.5c-.07,3.2-.1,8.02-.1,14.45l2.85-.35c.37-7.87,.55-12.3,.55-13.3,.17-5.07,.08-9.45-.25-13.15l-2.75-2.25c-.2,4-.3,8.87-.3,14.6Z"/>
    <path class="cls-9" d="M240.55,78.48c-3.3,0-6.93,.97-10.9,2.9-4.43,2.6-7.73,4.48-9.9,5.65h8.05c3.93-3.93,8.18-6.78,12.75-8.55Z"/>
  </g>
  <path id="Layer2_0_1_STROKES" data-name="Layer2 0 1 STROKES" class="cls-5" d="M625.35,398.58l1.6-1.5c.33-3.8,.27-8.63-.2-14.5-2.07-.87-4.1-1.63-6.1-2.3M219.75,87.03c2.17-1.17,5.47-3.05,9.9-5.65,3.97-1.93,7.6-2.9,10.9-2.9-4.57,1.77-8.82,4.62-12.75,8.55h-8.05Z"/>
  <path id="Layer2_0_2_STROKES" data-name="Layer2 0 2 STROKES" class="cls-4" d="M326.9,308.48c-11.54,1.23-22.19,2.23-31.95,3-4.31,.34-8.44,.64-12.4,.9m164.25,4c2.3,.1,5.85,.2,10.65,.3,4.13,.2,7.65,.63,10.55,1.3,.83,7.6,1.18,16.18,1.05,25.75-8.97,.1-16.25,.02-21.85-.25-.2-3.5-.3-8.02-.3-13.55,0-7.33-.03-11.85-.1-13.55Zm109.3,83.1c-.2-1.93-1.12-8.45-2.75-19.55-1.2-7.97-1.7-14.55-1.5-19.75,4.73,.43,12.47,.88,23.2,1.35,10.03,.33,17.8,.77,23.3,1.3,.73,12.83-.75,25.35-4.45,37.55-8.4-.4-14.68-.73-18.85-1-7.43-.2-13.75-.17-18.95,.1Zm13.75,89.45c2.33,.17,5.95,.17,10.85,0,4.27,.17,7.6,1.23,10,3.2,2.3,2.33,3.42,5.25,3.35,8.75-.03,3.47-1.27,6.35-3.7,8.65-2.17,2.4-5.38,3.82-9.65,4.25-4.93,.27-8.55,.48-10.85,.65v-25.5ZM289.05,155.73c2.07-.97,4.7-1.18,7.9-.65,1.9,.33,4.62,.95,8.15,1.85-3.6,.2-6.32,.3-8.15,.3-3.23,0-5.87-.5-7.9-1.5Zm-164.2,124.4l2.75,2.25c.33,3.7,.42,8.08,.25,13.15,0,1-.18,5.43-.55,13.3l-2.85,.35c0-6.43,.03-11.25,.1-14.45,0-5.73,.1-10.6,.3-14.6Zm85.85-46.9c3.07-2.47,6.7-3.88,10.9-4.25,1.63,2.3,2.75,4,3.35,5.1,1.07,2.1,1.67,4.05,1.8,5.85-2.8,.07-5.65-.6-8.55-2-2.03-.97-4.53-2.53-7.5-4.7Zm-78.7,45.7l2.8,.3c.8,8.87,.83,18.38,.1,28.55l-3,.35c-.1-6.5-.07-16.23,.1-29.2Zm6.55,35.75c-1.37,.07-1.98-.68-1.85-2.25,.23-1.5,.97-2.25,2.2-2.25,1.37-.1,1.95,.6,1.75,2.1-.17,1.53-.87,2.33-2.1,2.4Zm143.85-9.3c-.1-.1-.22-.18-.35-.25-.27-.43-.15-.62,.35-.55,.9,0,.78,.18-.35,.55m.5,7.25c0-3.07-.05-5.4-.15-7"/>
  <path id="Layer2_0_3_STROKES" data-name="Layer2 0 3 STROKES" class="cls-6" d="M443.85,313.43c4.7,0,8.42,.23,11.15,.7,1,.17,3.85,.43,8.55,.8,3.5,.27,6.32,.77,8.45,1.5,0,.67,.2,5.52,.6,14.55,.3,5.77,.22,10.57-.25,14.4-1.97,1.97-3.68,2.68-5.15,2.15-2.53-.37-6.2-.57-11-.6-4.93-.13-8.55-.32-10.85-.55-.97-4.5-1.5-9.93-1.6-16.3,.1-7.43,.13-12.98,.1-16.65Zm32.55,61.55c3.8-2.53,8.62-3.98,14.45-4.35,1.6-.17,6.7-.17,15.3,0,8.73,.2,18.3,3.32,28.7,9.35-2.07-.03-4.48-.55-7.25-1.55-3.2-1.2-5.57-2.02-7.1-2.45-7.27-2.3-17.07-3.27-29.4-2.9-3.9,.07-7.52,1.08-10.85,3.05-3.57,2-6.32,4.6-8.25,7.8-1.23,1.77-2.53,4.25-3.9,7.45-1.9,4.33-3.05,6.92-3.45,7.75-.9,.17-1.42-.28-1.55-1.35,.13-1.27,.12-2.15-.05-2.65,.17-4,1.55-7.9,4.15-11.7,2.37-3.33,5.43-6.15,9.2-8.45Zm88.95-42.15c2.57,.37,4.52,.87,5.85,1.5v4.5c-1.4,1-3.43,1.77-6.1,2.3,0-3.7,.08-6.47,.25-8.3Zm-17.75,24.15c17.67-.77,35.37,.3,53.1,3.2,.9,9.63,.35,18.93-1.65,27.9-2.37,9.8-3.67,16.85-3.9,21.15-1-1.47-1.95-3.83-2.85-7.1-3.13,.1-9.3-.03-18.5-.4-7.73-.33-13.9-.32-18.5,.05-.47,2.3-1.23,4.95-2.3,7.95,6.47,0,17.3,.27,32.5,.8,14,.5,24.85,.68,32.55,.55l.1,1.55c-10.33,.33-22.25,.42-35.75,.25-4.03-.07-15.97-.32-35.8-.75-6.47-.1-11.33-.2-14.6-.3-5.77-.2-10.58-.65-14.45-1.35,4.27-.6,9.75-.87,16.45-.8,9.73,.03,15.23,.03,16.5,0,.37-3.9,.18-8.8-.55-14.7-1.1-9.03-1.65-13.93-1.65-14.7-.47-3.37-.7-7.23-.7-11.6v-11.7Zm10.6,11.55c4.6-.6,10.6-.67,18-.2,9.43,.67,15.42,.97,17.95,.9l-.25,2.75c-11.5-.97-17.78-1.48-18.85-1.55-3.8-.1-6.63-.18-8.5-.25-3.3-.23-6.08-.78-8.35-1.65Zm-.8,9.05c.5-1.13,1.52-1.83,3.05-2.1,.27-.03,1.58-.05,3.95-.05,7.43,.47,12.3,.78,14.6,.95,5.57,.3,10.45,.45,14.65,.45l.35,2.85c-4.97,0-11.05-.25-18.25-.75-8.17-.63-14.28-1.08-18.35-1.35Zm1.55,6c4.87-.1,10.8,.1,17.8,.6,3.9,.23,9.78,.68,17.65,1.35l-2,2.8c-3.43-.43-9.05-.87-16.85-1.3-7.17-.37-12.7-.85-16.6-1.45v-2Zm-.75,7.8c4.13-.37,9.33-.47,15.6-.3,9.8,.23,14.93,.35,15.4,.35l.45,3.45c-5.83-.03-10.75-.15-14.75-.35-5.47-.33-10.42-.85-14.85-1.55l-1.85-1.6Zm-42.4,4.75c.27-3.7,.75-8.25,1.45-13.65,4.8,.3,11.18,.37,19.15,.2-.1,6.6-.1,11.55,0,14.85-4.63,0-8.08-.05-10.35-.15-4.07-.1-7.48-.52-10.25-1.25Zm1.85,41.6c6.73-.7,14.85-.93,24.35-.7,5.47,.13,13.62,.33,24.45,.6,.3,2.73,.9,5.73,1.8,9-.52,0-9.24,.05-26.18,.15-.6,0-1.21,0-1.82,0-11.23,.07-20.53-.25-27.9-.95,1.53-1.5,2.65-2.73,3.35-3.7,1.07-1.4,1.72-2.87,1.95-4.4Zm-30.65-38.95c1.4-1.37,2.77-1.6,4.1-.7m-72.2,10.05c5.03-.57,12.02-.73,20.95-.5,10.1,.3,17.1,.33,21,.1l-.3,3c-9.33,.2-16.32,.27-20.95,.2-8.13-.13-15.03-1.07-20.7-2.8Zm186.95-19.7c3,.13,7.52,.15,13.55,.05,1.93,13-.3,18.38-6.7,16.15l-6.95,.05c-.47-5.5-.43-10.92,.1-16.25Zm-193.3-101.9c2.37-.7,4.97-1.27,7.8-1.7,.6,10.43,.78,23.35,.55,38.75-.1,8.63-.28,21.55-.55,38.75-.07,2.63-.07,9.83,0,21.6,0,8.87-.17,16.08-.5,21.65-2.07-5.13-4.82-7.83-8.25-8.1-6.03-.43-15.53-.52-28.5-.25-12.4,.2-21.88,.02-28.45-.55,8.1-.83,17.7-1.25,28.8-1.25,6.37,0,15.97,.08,28.8,.25-.27-9.5-.37-27.08-.3-52.75,.07-22.27-.17-39.87-.7-52.8l1.3-3.6Zm-1.3,150.25c3.23,.1,8.13,.07,14.7-.1,5.83,0,10.7,.35,14.6,1.05l2.1,7.7c-5,.83-10.57,1.23-16.7,1.2-4.6,0-10.22-.3-16.85-.9,1.23-3.03,1.95-6.02,2.15-8.95Zm-43.65,1.4h-.1"/>
  <path id="Layer2_0_4_STROKES" data-name="Layer2 0 4 STROKES" class="cls-3" d="M496.95,419.83c0,2.34-.17,4.5-.52,6.5-.35,1.99-.88,3.8-1.58,5.45-.43,1.2-.93,2.12-1.5,2.75-1.13,1.53-2.35,2.3-3.65,2.3-1.97,0-3.68-1.68-5.15-5.05-1.4-3.3-2.1-7.28-2.1-11.95s.7-8.7,2.1-12c1.47-3.33,3.18-5,5.15-5,2.07,0,3.78,1.67,5.15,5,1.4,3.3,2.1,7.3,2.1,12Zm-99.05,5.05c0,4.07-.72,7.55-2.15,10.45-.47,1-.97,1.8-1.5,2.4-1.1,1.3-2.35,1.95-3.75,1.95-1.93,0-3.62-1.45-5.05-4.35-.7-1.45-1.22-3.04-1.57-4.78-.35-1.75-.53-3.64-.53-5.67,0-4.1,.7-7.57,2.1-10.4,1.43-2.97,3.12-4.45,5.05-4.45,2.1,0,3.85,1.48,5.25,4.45,1.43,2.83,2.15,6.3,2.15,10.4Zm-27.55-2.45c0,3.83-.77,7.12-2.3,9.85-.47,.9-1,1.62-1.6,2.15-1.23,1.23-2.53,1.85-3.9,1.85-2.13,0-3.97-1.33-5.5-4-1.47-2.73-2.2-6.02-2.2-9.85s.73-7.17,2.2-9.8c1.53-2.73,3.37-4.1,5.5-4.1s3.97,1.37,5.5,4.1c1.53,2.63,2.3,5.9,2.3,9.8Z"/>
</svg>